<svg width="430" height="932" viewBox="0 0 430 932" fill="none" xmlns="http://www.w3.org/2000/svg">
<rect width="430" height="932" fill="#1E1E1E"/>
<path d="M0 277C0 263.193 11.1929 252 25 252H405C418.807 252 430 263.193 430 277V932H0V277Z" fill="#333333"/>
<path d="M70.9946 91V77H73.2946V91H70.9946ZM72.5746 91V88.9H80.4146V91H72.5746ZM72.5746 84.86V82.84H79.7346V84.86H72.5746ZM72.5746 79.1V77H80.3146V79.1H72.5746ZM90.0715 91V85.46C90.0715 84.82 89.8648 84.2933 89.4515 83.88C89.0515 83.4667 88.5315 83.26 87.8915 83.26C87.4648 83.26 87.0848 83.3533 86.7515 83.54C86.4182 83.7267 86.1582 83.9867 85.9715 84.32C85.7848 84.6533 85.6915 85.0333 85.6915 85.46L84.8315 84.98C84.8315 84.2467 84.9915 83.6 85.3115 83.04C85.6315 82.4667 86.0715 82.02 86.6315 81.7C87.2048 81.3667 87.8448 81.2 88.5515 81.2C89.2715 81.2 89.9115 81.3867 90.4715 81.76C91.0315 82.12 91.4715 82.5933 91.7915 83.18C92.1115 83.7533 92.2715 84.3533 92.2715 84.98V91H90.0715ZM83.4915 91V81.4H85.6915V91H83.4915ZM96.8499 91V77.4H99.0499V91H96.8499ZM94.5499 83.4V81.4H101.35V83.4H94.5499ZM108.135 91.2C107.175 91.2 106.308 90.9867 105.535 90.56C104.775 90.12 104.168 89.52 103.715 88.76C103.275 88 103.055 87.1467 103.055 86.2C103.055 85.2533 103.275 84.4067 103.715 83.66C104.155 82.9 104.748 82.3 105.495 81.86C106.255 81.42 107.095 81.2 108.015 81.2C108.908 81.2 109.695 81.4067 110.375 81.82C111.068 82.2333 111.608 82.8 111.995 83.52C112.395 84.24 112.595 85.06 112.595 85.98C112.595 86.14 112.582 86.3067 112.555 86.48C112.542 86.64 112.515 86.82 112.475 87.02H104.595V85.22H111.335L110.515 85.94C110.488 85.3533 110.375 84.86 110.175 84.46C109.975 84.06 109.688 83.7533 109.315 83.54C108.955 83.3267 108.508 83.22 107.975 83.22C107.415 83.22 106.928 83.34 106.515 83.58C106.102 83.82 105.782 84.16 105.555 84.6C105.328 85.0267 105.215 85.54 105.215 86.14C105.215 86.74 105.335 87.2667 105.575 87.72C105.815 88.1733 106.155 88.5267 106.595 88.78C107.035 89.02 107.542 89.14 108.115 89.14C108.608 89.14 109.062 89.0533 109.475 88.88C109.902 88.7067 110.262 88.4533 110.555 88.12L111.955 89.54C111.488 90.0867 110.922 90.5 110.255 90.78C109.588 91.06 108.882 91.2 108.135 91.2ZM115.359 91V81.4H117.559V91H115.359ZM117.559 85.66L116.799 85.28C116.799 84.0667 117.065 83.0867 117.599 82.34C118.145 81.58 118.965 81.2 120.059 81.2C120.539 81.2 120.972 81.2867 121.359 81.46C121.745 81.6333 122.105 81.9133 122.439 82.3L120.999 83.78C120.825 83.5933 120.632 83.46 120.419 83.38C120.205 83.3 119.959 83.26 119.679 83.26C119.065 83.26 118.559 83.4533 118.159 83.84C117.759 84.2267 117.559 84.8333 117.559 85.66ZM134.779 91L129.119 77H131.619L136.039 88.34H135.159L139.619 77H142.079L136.379 91H134.779ZM147.311 91.2C146.351 91.2 145.484 90.9867 144.711 90.56C143.951 90.12 143.344 89.52 142.891 88.76C142.451 88 142.231 87.1467 142.231 86.2C142.231 85.2533 142.451 84.4067 142.891 83.66C143.331 82.9 143.924 82.3 144.671 81.86C145.431 81.42 146.271 81.2 147.191 81.2C148.084 81.2 148.871 81.4067 149.551 81.82C150.244 82.2333 150.784 82.8 151.171 83.52C151.571 84.24 151.771 85.06 151.771 85.98C151.771 86.14 151.758 86.3067 151.731 86.48C151.718 86.64 151.691 86.82 151.651 87.02H143.771V85.22H150.511L149.691 85.94C149.664 85.3533 149.551 84.86 149.351 84.46C149.151 84.06 148.864 83.7533 148.491 83.54C148.131 83.3267 147.684 83.22 147.151 83.22C146.591 83.22 146.104 83.34 145.691 83.58C145.278 83.82 144.958 84.16 144.731 84.6C144.504 85.0267 144.391 85.54 144.391 86.14C144.391 86.74 144.511 87.2667 144.751 87.72C144.991 88.1733 145.331 88.5267 145.771 88.78C146.211 89.02 146.718 89.14 147.291 89.14C147.784 89.14 148.238 89.0533 148.651 88.88C149.078 88.7067 149.438 88.4533 149.731 88.12L151.131 89.54C150.664 90.0867 150.098 90.5 149.431 90.78C148.764 91.06 148.058 91.2 147.311 91.2ZM154.534 91V81.4H156.734V91H154.534ZM156.734 85.66L155.974 85.28C155.974 84.0667 156.241 83.0867 156.774 82.34C157.321 81.58 158.141 81.2 159.234 81.2C159.714 81.2 160.148 81.2867 160.534 81.46C160.921 81.6333 161.281 81.9133 161.614 82.3L160.174 83.78C160.001 83.5933 159.808 83.46 159.594 83.38C159.381 83.3 159.134 83.26 158.854 83.26C158.241 83.26 157.734 83.4533 157.334 83.84C156.934 84.2267 156.734 84.8333 156.734 85.66ZM163.699 91V81.4H165.899V91H163.699ZM164.799 79.64C164.426 79.64 164.112 79.5133 163.859 79.26C163.619 79.0067 163.499 78.6933 163.499 78.32C163.499 77.9467 163.619 77.6333 163.859 77.38C164.112 77.1267 164.426 77 164.799 77C165.186 77 165.499 77.1267 165.739 77.38C165.979 77.6333 166.099 77.9467 166.099 78.32C166.099 78.6933 165.979 79.0067 165.739 79.26C165.499 79.5133 165.186 79.64 164.799 79.64ZM170.686 91V79.74C170.686 79.1 170.826 78.5333 171.106 78.04C171.4 77.5333 171.8 77.1333 172.306 76.84C172.813 76.5467 173.406 76.4 174.086 76.4C174.593 76.4 175.033 76.4867 175.406 76.66C175.793 76.82 176.153 77.0533 176.486 77.36L175.046 78.8C174.913 78.6933 174.766 78.6133 174.606 78.56C174.46 78.4933 174.286 78.46 174.086 78.46C173.7 78.46 173.4 78.5733 173.186 78.8C172.986 79.0267 172.886 79.3333 172.886 79.72V91H170.686ZM168.386 83.4V81.4H177.746V83.4H168.386ZM176.486 91V81.4H178.686V91H176.486ZM177.586 80.56C177.213 80.56 176.9 80.4333 176.646 80.18C176.406 79.9267 176.286 79.6133 176.286 79.24C176.286 78.8667 176.406 78.5533 176.646 78.3C176.9 78.0467 177.213 77.92 177.586 77.92C177.973 77.92 178.286 78.0467 178.526 78.3C178.766 78.5533 178.886 78.8667 178.886 79.24C178.886 79.6133 178.766 79.9267 178.526 80.18C178.286 80.4333 177.973 80.56 177.586 80.56ZM186.564 91.2C185.617 91.2 184.757 90.98 183.984 90.54C183.224 90.1 182.624 89.5 182.184 88.74C181.744 87.98 181.524 87.1333 181.524 86.2C181.524 85.2533 181.744 84.4067 182.184 83.66C182.624 82.9 183.224 82.3 183.984 81.86C184.757 81.42 185.617 81.2 186.564 81.2C187.31 81.2 188.004 81.3467 188.644 81.64C189.297 81.92 189.85 82.3267 190.304 82.86L188.864 84.32C188.584 83.9867 188.244 83.74 187.844 83.58C187.457 83.4067 187.03 83.32 186.564 83.32C186.017 83.32 185.53 83.4467 185.104 83.7C184.69 83.94 184.364 84.2733 184.124 84.7C183.897 85.1267 183.784 85.6267 183.784 86.2C183.784 86.76 183.897 87.26 184.124 87.7C184.364 88.1267 184.69 88.4667 185.104 88.72C185.53 88.96 186.017 89.08 186.564 89.08C187.03 89.08 187.457 89 187.844 88.84C188.244 88.6667 188.584 88.4133 188.864 88.08L190.304 89.54C189.85 90.0733 189.297 90.4867 188.644 90.78C188.004 91.06 187.31 91.2 186.564 91.2ZM196.715 91.2C195.848 91.2 195.061 90.98 194.355 90.54C193.661 90.1 193.108 89.5067 192.695 88.76C192.295 88 192.095 87.1533 192.095 86.22C192.095 85.2733 192.295 84.4267 192.695 83.68C193.108 82.92 193.661 82.32 194.355 81.88C195.061 81.4267 195.848 81.2 196.715 81.2C197.448 81.2 198.095 81.36 198.655 81.68C199.228 81.9867 199.681 82.4133 200.015 82.96C200.348 83.5067 200.515 84.1267 200.515 84.82V87.58C200.515 88.2733 200.348 88.8933 200.015 89.44C199.695 89.9867 199.248 90.42 198.675 90.74C198.101 91.0467 197.448 91.2 196.715 91.2ZM197.075 89.12C197.888 89.12 198.541 88.8467 199.035 88.3C199.541 87.7533 199.795 87.0533 199.795 86.2C199.795 85.6267 199.681 85.12 199.455 84.68C199.228 84.24 198.908 83.9 198.495 83.66C198.095 83.4067 197.621 83.28 197.075 83.28C196.541 83.28 196.068 83.4067 195.655 83.66C195.255 83.9 194.935 84.24 194.695 84.68C194.468 85.12 194.355 85.6267 194.355 86.2C194.355 86.7733 194.468 87.28 194.695 87.72C194.935 88.16 195.255 88.5067 195.655 88.76C196.068 89 196.541 89.12 197.075 89.12ZM199.655 91V88.42L200.035 86.08L199.655 83.76V81.4H201.855V91H199.655ZM206.756 91V77.4H208.956V91H206.756ZM204.456 83.4V81.4H211.256V83.4H204.456ZM213.875 91V81.4H216.075V91H213.875ZM214.975 79.64C214.601 79.64 214.288 79.5133 214.035 79.26C213.795 79.0067 213.675 78.6933 213.675 78.32C213.675 77.9467 213.795 77.6333 214.035 77.38C214.288 77.1267 214.601 77 214.975 77C215.361 77 215.675 77.1267 215.915 77.38C216.155 77.6333 216.275 77.9467 216.275 78.32C216.275 78.6933 216.155 79.0067 215.915 79.26C215.675 79.5133 215.361 79.64 214.975 79.64ZM223.942 91.2C223.009 91.2 222.162 90.98 221.402 90.54C220.642 90.0867 220.036 89.48 219.582 88.72C219.142 87.96 218.922 87.1133 218.922 86.18C218.922 85.2467 219.142 84.4067 219.582 83.66C220.036 82.9133 220.642 82.32 221.402 81.88C222.162 81.4267 223.009 81.2 223.942 81.2C224.889 81.2 225.742 81.42 226.502 81.86C227.262 82.3 227.862 82.9 228.302 83.66C228.756 84.4067 228.982 85.2467 228.982 86.18C228.982 87.1133 228.756 87.96 228.302 88.72C227.862 89.48 227.262 90.0867 226.502 90.54C225.742 90.98 224.889 91.2 223.942 91.2ZM223.942 89.08C224.489 89.08 224.969 88.96 225.382 88.72C225.809 88.4667 226.136 88.12 226.362 87.68C226.602 87.24 226.722 86.74 226.722 86.18C226.722 85.62 226.602 85.1267 226.362 84.7C226.122 84.2733 225.796 83.94 225.382 83.7C224.969 83.4467 224.489 83.32 223.942 83.32C223.409 83.32 222.929 83.4467 222.502 83.7C222.089 83.94 221.762 84.2733 221.522 84.7C221.296 85.1267 221.182 85.62 221.182 86.18C221.182 86.74 221.296 87.24 221.522 87.68C221.762 88.12 222.089 88.4667 222.502 88.72C222.929 88.96 223.409 89.08 223.942 89.08ZM238.392 91V85.46C238.392 84.82 238.185 84.2933 237.772 83.88C237.372 83.4667 236.852 83.26 236.212 83.26C235.785 83.26 235.405 83.3533 235.072 83.54C234.738 83.7267 234.478 83.9867 234.292 84.32C234.105 84.6533 234.012 85.0333 234.012 85.46L233.152 84.98C233.152 84.2467 233.312 83.6 233.632 83.04C233.952 82.4667 234.392 82.02 234.952 81.7C235.525 81.3667 236.165 81.2 236.872 81.2C237.592 81.2 238.232 81.3867 238.792 81.76C239.352 82.12 239.792 82.5933 240.112 83.18C240.432 83.7533 240.592 84.3533 240.592 84.98V91H238.392ZM231.812 91V81.4H234.012V91H231.812ZM255.491 91.2C254.478 91.2 253.538 91.02 252.671 90.66C251.818 90.2867 251.071 89.7733 250.431 89.12C249.791 88.4533 249.298 87.6867 248.951 86.82C248.605 85.94 248.431 85 248.431 84C248.431 83 248.605 82.0667 248.951 81.2C249.298 80.32 249.791 79.5533 250.431 78.9C251.071 78.2467 251.818 77.7333 252.671 77.36C253.538 76.9867 254.478 76.8 255.491 76.8C256.625 76.8 257.605 76.9867 258.431 77.36C259.258 77.7333 259.991 78.24 260.631 78.88L259.071 80.44C258.658 79.9867 258.151 79.6333 257.551 79.38C256.965 79.1267 256.278 79 255.491 79C254.798 79 254.165 79.12 253.591 79.36C253.018 79.6 252.518 79.9467 252.091 80.4C251.678 80.84 251.358 81.3667 251.131 81.98C250.905 82.5933 250.791 83.2667 250.791 84C250.791 84.7333 250.905 85.4067 251.131 86.02C251.358 86.6333 251.678 87.1667 252.091 87.62C252.518 88.06 253.018 88.4 253.591 88.64C254.165 88.88 254.798 89 255.491 89C256.345 89 257.065 88.8733 257.651 88.62C258.251 88.3533 258.758 87.9933 259.171 87.54L260.731 89.1C260.091 89.7533 259.338 90.2667 258.471 90.64C257.605 91.0133 256.611 91.2 255.491 91.2ZM267.591 91.2C266.657 91.2 265.811 90.98 265.051 90.54C264.291 90.0867 263.684 89.48 263.231 88.72C262.791 87.96 262.571 87.1133 262.571 86.18C262.571 85.2467 262.791 84.4067 263.231 83.66C263.684 82.9133 264.291 82.32 265.051 81.88C265.811 81.4267 266.657 81.2 267.591 81.2C268.537 81.2 269.391 81.42 270.151 81.86C270.911 82.3 271.511 82.9 271.951 83.66C272.404 84.4067 272.631 85.2467 272.631 86.18C272.631 87.1133 272.404 87.96 271.951 88.72C271.511 89.48 270.911 90.0867 270.151 90.54C269.391 90.98 268.537 91.2 267.591 91.2ZM267.591 89.08C268.137 89.08 268.617 88.96 269.031 88.72C269.457 88.4667 269.784 88.12 270.011 87.68C270.251 87.24 270.371 86.74 270.371 86.18C270.371 85.62 270.251 85.1267 270.011 84.7C269.771 84.2733 269.444 83.94 269.031 83.7C268.617 83.4467 268.137 83.32 267.591 83.32C267.057 83.32 266.577 83.4467 266.151 83.7C265.737 83.94 265.411 84.2733 265.171 84.7C264.944 85.1267 264.831 85.62 264.831 86.18C264.831 86.74 264.944 87.24 265.171 87.68C265.411 88.12 265.737 88.4667 266.151 88.72C266.577 88.96 267.057 89.08 267.591 89.08ZM279.48 91.2C278.614 91.2 277.827 90.98 277.12 90.54C276.427 90.1 275.874 89.5067 275.46 88.76C275.06 88 274.86 87.1533 274.86 86.22C274.86 85.2733 275.06 84.4267 275.46 83.68C275.874 82.92 276.427 82.32 277.12 81.88C277.827 81.4267 278.614 81.2 279.48 81.2C280.214 81.2 280.86 81.36 281.42 81.68C281.994 81.9867 282.447 82.4133 282.78 82.96C283.114 83.5067 283.28 84.1267 283.28 84.82V87.58C283.28 88.2733 283.114 88.8933 282.78 89.44C282.46 89.9867 282.014 90.42 281.44 90.74C280.867 91.0467 280.214 91.2 279.48 91.2ZM279.84 89.12C280.387 89.12 280.86 89 281.26 88.76C281.674 88.5067 281.994 88.16 282.22 87.72C282.447 87.28 282.56 86.7733 282.56 86.2C282.56 85.6267 282.447 85.12 282.22 84.68C281.994 84.24 281.674 83.9 281.26 83.66C280.86 83.4067 280.387 83.28 279.84 83.28C279.307 83.28 278.834 83.4067 278.42 83.66C278.02 83.9 277.7 84.24 277.46 84.68C277.234 85.12 277.12 85.6267 277.12 86.2C277.12 86.7733 277.234 87.28 277.46 87.72C277.7 88.16 278.02 88.5067 278.42 88.76C278.834 89 279.307 89.12 279.84 89.12ZM284.62 91H282.42V88.42L282.8 86.08L282.42 83.76V76.6H284.62V91ZM292.522 91.2C291.562 91.2 290.695 90.9867 289.922 90.56C289.162 90.12 288.555 89.52 288.102 88.76C287.662 88 287.442 87.1467 287.442 86.2C287.442 85.2533 287.662 84.4067 288.102 83.66C288.542 82.9 289.135 82.3 289.882 81.86C290.642 81.42 291.482 81.2 292.402 81.2C293.295 81.2 294.082 81.4067 294.762 81.82C295.455 82.2333 295.995 82.8 296.382 83.52C296.782 84.24 296.982 85.06 296.982 85.98C296.982 86.14 296.968 86.3067 296.942 86.48C296.928 86.64 296.902 86.82 296.862 87.02H288.982V85.22H295.722L294.902 85.94C294.875 85.3533 294.762 84.86 294.562 84.46C294.362 84.06 294.075 83.7533 293.702 83.54C293.342 83.3267 292.895 83.22 292.362 83.22C291.802 83.22 291.315 83.34 290.902 83.58C290.488 83.82 290.168 84.16 289.942 84.6C289.715 85.0267 289.602 85.54 289.602 86.14C289.602 86.74 289.722 87.2667 289.962 87.72C290.202 88.1733 290.542 88.5267 290.982 88.78C291.422 89.02 291.928 89.14 292.502 89.14C292.995 89.14 293.448 89.0533 293.862 88.88C294.288 88.7067 294.648 88.4533 294.942 88.12L296.342 89.54C295.875 90.0867 295.308 90.5 294.642 90.78C293.975 91.06 293.268 91.2 292.522 91.2Z" fill="white"/>
<path d="M34.2929 83.2929C33.9024 83.6834 33.9024 84.3166 34.2929 84.7071L40.6569 91.0711C41.0474 91.4616 41.6805 91.4616 42.0711 91.0711C42.4616 90.6805 42.4616 90.0474 42.0711 89.6569L36.4142 84L42.0711 78.3431C42.4616 77.9526 42.4616 77.3195 42.0711 76.9289C41.6805 76.5384 41.0474 76.5384 40.6569 76.9289L34.2929 83.2929ZM54 83L35 83L35 85L54 85L54 83Z" fill="white"/>
<path d="M49.488 333.456L42.32 353H37.56L30.392 333.456H34.592L39.968 348.996L45.316 333.456H49.488ZM66.2583 344.908C66.2583 345.468 66.2209 345.972 66.1463 346.42H54.8063C54.8996 347.54 55.2916 348.417 55.9823 349.052C56.6729 349.687 57.5223 350.004 58.5303 350.004C59.9863 350.004 61.0223 349.379 61.6383 348.128H65.8663C65.4183 349.621 64.5596 350.853 63.2903 351.824C62.0209 352.776 60.4623 353.252 58.6143 353.252C57.1209 353.252 55.7769 352.925 54.5823 352.272C53.4063 351.6 52.4823 350.657 51.8103 349.444C51.1569 348.231 50.8302 346.831 50.8302 345.244C50.8302 343.639 51.1569 342.229 51.8103 341.016C52.4636 339.803 53.3783 338.869 54.5543 338.216C55.7303 337.563 57.0836 337.236 58.6143 337.236C60.0889 337.236 61.4049 337.553 62.5623 338.188C63.7383 338.823 64.6436 339.728 65.2783 340.904C65.9316 342.061 66.2583 343.396 66.2583 344.908ZM62.1983 343.788C62.1796 342.78 61.8156 341.977 61.1063 341.38C60.3969 340.764 59.5289 340.456 58.5023 340.456C57.5316 340.456 56.7103 340.755 56.0383 341.352C55.3849 341.931 54.9836 342.743 54.8343 343.788H62.1983ZM73.0395 339.896C73.5435 339.075 74.1968 338.431 74.9995 337.964C75.8208 337.497 76.7542 337.264 77.7995 337.264V341.38H76.7635C75.5315 341.38 74.5982 341.669 73.9635 342.248C73.3475 342.827 73.0395 343.835 73.0395 345.272V353H69.1195V337.488H73.0395V339.896ZM82.4278 335.64C81.7371 335.64 81.1585 335.425 80.6918 334.996C80.2438 334.548 80.0198 333.997 80.0198 333.344C80.0198 332.691 80.2438 332.149 80.6918 331.72C81.1585 331.272 81.7371 331.048 82.4278 331.048C83.1185 331.048 83.6878 331.272 84.1358 331.72C84.6025 332.149 84.8358 332.691 84.8358 333.344C84.8358 333.997 84.6025 334.548 84.1358 334.996C83.6878 335.425 83.1185 335.64 82.4278 335.64ZM84.3598 337.488V353H80.4398V337.488H84.3598ZM95.3448 340.708H92.6288V353H88.6528V340.708H86.8888V337.488H88.6528V336.704C88.6528 334.8 89.1941 333.4 90.2768 332.504C91.3594 331.608 92.9928 331.188 95.1768 331.244V334.548C94.2248 334.529 93.5621 334.688 93.1888 335.024C92.8154 335.36 92.6288 335.967 92.6288 336.844V337.488H95.3448V340.708ZM99.8731 335.64C99.1825 335.64 98.6038 335.425 98.1371 334.996C97.6891 334.548 97.4651 333.997 97.4651 333.344C97.4651 332.691 97.6891 332.149 98.1371 331.72C98.6038 331.272 99.1825 331.048 99.8731 331.048C100.564 331.048 101.133 331.272 101.581 331.72C102.048 332.149 102.281 332.691 102.281 333.344C102.281 333.997 102.048 334.548 101.581 334.996C101.133 335.425 100.564 335.64 99.8731 335.64ZM101.805 337.488V353H97.8851V337.488H101.805ZM104.67 345.244C104.67 343.639 104.997 342.239 105.65 341.044C106.303 339.831 107.209 338.897 108.366 338.244C109.523 337.572 110.849 337.236 112.342 337.236C114.265 337.236 115.851 337.721 117.102 338.692C118.371 339.644 119.221 340.988 119.65 342.724H115.422C115.198 342.052 114.815 341.529 114.274 341.156C113.751 340.764 113.098 340.568 112.314 340.568C111.194 340.568 110.307 340.979 109.654 341.8C109.001 342.603 108.674 343.751 108.674 345.244C108.674 346.719 109.001 347.867 109.654 348.688C110.307 349.491 111.194 349.892 112.314 349.892C113.901 349.892 114.937 349.183 115.422 347.764H119.65C119.221 349.444 118.371 350.779 117.102 351.768C115.833 352.757 114.246 353.252 112.342 353.252C110.849 353.252 109.523 352.925 108.366 352.272C107.209 351.6 106.303 350.667 105.65 349.472C104.997 348.259 104.67 346.849 104.67 345.244ZM121.514 345.188C121.514 343.62 121.822 342.229 122.438 341.016C123.073 339.803 123.922 338.869 124.986 338.216C126.069 337.563 127.273 337.236 128.598 337.236C129.755 337.236 130.763 337.469 131.622 337.936C132.499 338.403 133.199 338.991 133.722 339.7V337.488H137.67V353H133.722V350.732C133.218 351.46 132.518 352.067 131.622 352.552C130.745 353.019 129.727 353.252 128.57 353.252C127.263 353.252 126.069 352.916 124.986 352.244C123.922 351.572 123.073 350.629 122.438 349.416C121.822 348.184 121.514 346.775 121.514 345.188ZM133.722 345.244C133.722 344.292 133.535 343.48 133.162 342.808C132.789 342.117 132.285 341.595 131.65 341.24C131.015 340.867 130.334 340.68 129.606 340.68C128.878 340.68 128.206 340.857 127.59 341.212C126.974 341.567 126.47 342.089 126.078 342.78C125.705 343.452 125.518 344.255 125.518 345.188C125.518 346.121 125.705 346.943 126.078 347.652C126.47 348.343 126.974 348.875 127.59 349.248C128.225 349.621 128.897 349.808 129.606 349.808C130.334 349.808 131.015 349.631 131.65 349.276C132.285 348.903 132.789 348.38 133.162 347.708C133.535 347.017 133.722 346.196 133.722 345.244ZM146.062 340.708V348.212C146.062 348.735 146.184 349.117 146.426 349.36C146.688 349.584 147.117 349.696 147.714 349.696H149.534V353H147.07C143.766 353 142.114 351.395 142.114 348.184V340.708H140.266V337.488H142.114V333.652H146.062V337.488H149.534V340.708H146.062ZM154.342 335.64C153.651 335.64 153.073 335.425 152.606 334.996C152.158 334.548 151.934 333.997 151.934 333.344C151.934 332.691 152.158 332.149 152.606 331.72C153.073 331.272 153.651 331.048 154.342 331.048C155.033 331.048 155.602 331.272 156.05 331.72C156.517 332.149 156.75 332.691 156.75 333.344C156.75 333.997 156.517 334.548 156.05 334.996C155.602 335.425 155.033 335.64 154.342 335.64ZM156.274 337.488V353H152.354V337.488H156.274ZM167.035 353.252C165.542 353.252 164.198 352.925 163.003 352.272C161.808 351.6 160.866 350.657 160.175 349.444C159.503 348.231 159.167 346.831 159.167 345.244C159.167 343.657 159.512 342.257 160.203 341.044C160.912 339.831 161.874 338.897 163.087 338.244C164.3 337.572 165.654 337.236 167.147 337.236C168.64 337.236 169.994 337.572 171.207 338.244C172.42 338.897 173.372 339.831 174.063 341.044C174.772 342.257 175.127 343.657 175.127 345.244C175.127 346.831 174.763 348.231 174.035 349.444C173.326 350.657 172.355 351.6 171.123 352.272C169.91 352.925 168.547 353.252 167.035 353.252ZM167.035 349.836C167.744 349.836 168.407 349.668 169.023 349.332C169.658 348.977 170.162 348.455 170.535 347.764C170.908 347.073 171.095 346.233 171.095 345.244C171.095 343.769 170.703 342.64 169.919 341.856C169.154 341.053 168.211 340.652 167.091 340.652C165.971 340.652 165.028 341.053 164.263 341.856C163.516 342.64 163.143 343.769 163.143 345.244C163.143 346.719 163.507 347.857 164.235 348.66C164.982 349.444 165.915 349.836 167.035 349.836ZM186.598 337.264C188.446 337.264 189.94 337.852 191.078 339.028C192.217 340.185 192.786 341.809 192.786 343.9V353H188.866V344.432C188.866 343.2 188.558 342.257 187.942 341.604C187.326 340.932 186.486 340.596 185.422 340.596C184.34 340.596 183.481 340.932 182.846 341.604C182.23 342.257 181.922 343.2 181.922 344.432V353H178.002V337.488H181.922V339.42C182.445 338.748 183.108 338.225 183.91 337.852C184.732 337.46 185.628 337.264 186.598 337.264ZM202.234 343.2C202.234 341.277 202.663 339.56 203.522 338.048C204.399 336.517 205.585 335.332 207.078 334.492C208.59 333.633 210.279 333.204 212.146 333.204C214.33 333.204 216.243 333.764 217.886 334.884C219.529 336.004 220.677 337.553 221.33 339.532H216.822C216.374 338.599 215.739 337.899 214.918 337.432C214.115 336.965 213.182 336.732 212.118 336.732C210.979 336.732 209.962 337.003 209.066 337.544C208.189 338.067 207.498 338.813 206.994 339.784C206.509 340.755 206.266 341.893 206.266 343.2C206.266 344.488 206.509 345.627 206.994 346.616C207.498 347.587 208.189 348.343 209.066 348.884C209.962 349.407 210.979 349.668 212.118 349.668C213.182 349.668 214.115 349.435 214.918 348.968C215.739 348.483 216.374 347.773 216.822 346.84H221.33C220.677 348.837 219.529 350.396 217.886 351.516C216.262 352.617 214.349 353.168 212.146 353.168C210.279 353.168 208.59 352.748 207.078 351.908C205.585 351.049 204.399 349.864 203.522 348.352C202.663 346.84 202.234 345.123 202.234 343.2ZM231.566 353.252C230.073 353.252 228.729 352.925 227.534 352.272C226.339 351.6 225.397 350.657 224.706 349.444C224.034 348.231 223.698 346.831 223.698 345.244C223.698 343.657 224.043 342.257 224.734 341.044C225.443 339.831 226.405 338.897 227.618 338.244C228.831 337.572 230.185 337.236 231.678 337.236C233.171 337.236 234.525 337.572 235.738 338.244C236.951 338.897 237.903 339.831 238.594 341.044C239.303 342.257 239.658 343.657 239.658 345.244C239.658 346.831 239.294 348.231 238.566 349.444C237.857 350.657 236.886 351.6 235.654 352.272C234.441 352.925 233.078 353.252 231.566 353.252ZM231.566 349.836C232.275 349.836 232.938 349.668 233.554 349.332C234.189 348.977 234.693 348.455 235.066 347.764C235.439 347.073 235.626 346.233 235.626 345.244C235.626 343.769 235.234 342.64 234.45 341.856C233.685 341.053 232.742 340.652 231.622 340.652C230.502 340.652 229.559 341.053 228.794 341.856C228.047 342.64 227.674 343.769 227.674 345.244C227.674 346.719 228.038 347.857 228.766 348.66C229.513 349.444 230.446 349.836 231.566 349.836ZM241.526 345.188C241.526 343.62 241.834 342.229 242.45 341.016C243.084 339.803 243.943 338.869 245.026 338.216C246.108 337.563 247.312 337.236 248.638 337.236C249.646 337.236 250.607 337.46 251.522 337.908C252.436 338.337 253.164 338.916 253.706 339.644V332.28H257.682V353H253.706V350.704C253.22 351.469 252.539 352.085 251.662 352.552C250.784 353.019 249.767 353.252 248.61 353.252C247.303 353.252 246.108 352.916 245.026 352.244C243.943 351.572 243.084 350.629 242.45 349.416C241.834 348.184 241.526 346.775 241.526 345.188ZM253.734 345.244C253.734 344.292 253.547 343.48 253.174 342.808C252.8 342.117 252.296 341.595 251.662 341.24C251.027 340.867 250.346 340.68 249.618 340.68C248.89 340.68 248.218 340.857 247.602 341.212C246.986 341.567 246.482 342.089 246.09 342.78C245.716 343.452 245.53 344.255 245.53 345.188C245.53 346.121 245.716 346.943 246.09 347.652C246.482 348.343 246.986 348.875 247.602 349.248C248.236 349.621 248.908 349.808 249.618 349.808C250.346 349.808 251.027 349.631 251.662 349.276C252.296 348.903 252.8 348.38 253.174 347.708C253.547 347.017 253.734 346.196 253.734 345.244ZM275.93 344.908C275.93 345.468 275.893 345.972 275.818 346.42H264.478C264.571 347.54 264.963 348.417 265.654 349.052C266.345 349.687 267.194 350.004 268.202 350.004C269.658 350.004 270.694 349.379 271.31 348.128H275.538C275.09 349.621 274.231 350.853 272.962 351.824C271.693 352.776 270.134 353.252 268.286 353.252C266.793 353.252 265.449 352.925 264.254 352.272C263.078 351.6 262.154 350.657 261.482 349.444C260.829 348.231 260.502 346.831 260.502 345.244C260.502 343.639 260.829 342.229 261.482 341.016C262.135 339.803 263.05 338.869 264.226 338.216C265.402 337.563 266.755 337.236 268.286 337.236C269.761 337.236 271.077 337.553 272.234 338.188C273.41 338.823 274.315 339.728 274.95 340.904C275.603 342.061 275.93 343.396 275.93 344.908ZM271.87 343.788C271.851 342.78 271.487 341.977 270.778 341.38C270.069 340.764 269.201 340.456 268.174 340.456C267.203 340.456 266.382 340.755 265.71 341.352C265.057 341.931 264.655 342.743 264.506 343.788H271.87Z" fill="white"/>
<path d="M32.352 387.278V390.54H35.908V391.59H32.352V394.95H36.328V396H31.078V386.228H36.328V387.278H32.352ZM41.9937 388.188C42.9271 388.188 43.6831 388.473 44.2617 389.042C44.8404 389.602 45.1297 390.414 45.1297 391.478V396H43.8697V391.66C43.8697 390.895 43.6784 390.311 43.2957 389.91C42.9131 389.499 42.3904 389.294 41.7277 389.294C41.0557 389.294 40.5191 389.504 40.1177 389.924C39.7257 390.344 39.5297 390.955 39.5297 391.758V396H38.2557V388.328H39.5297V389.42C39.7817 389.028 40.1224 388.725 40.5517 388.51C40.9904 388.295 41.4711 388.188 41.9937 388.188ZM48.7648 389.378V393.9C48.7648 394.273 48.8441 394.539 49.0028 394.698C49.1615 394.847 49.4368 394.922 49.8288 394.922H50.7668V396H49.6188C48.9095 396 48.3775 395.837 48.0228 395.51C47.6681 395.183 47.4908 394.647 47.4908 393.9V389.378H46.4968V388.328H47.4908V386.396H48.7648V388.328H50.7668V389.378H48.7648ZM59.3104 391.87C59.3104 392.113 59.2964 392.369 59.2684 392.64H53.1364C53.1831 393.396 53.4398 393.989 53.9064 394.418C54.3824 394.838 54.9564 395.048 55.6284 395.048C56.1791 395.048 56.6364 394.922 57.0004 394.67C57.3738 394.409 57.6351 394.063 57.7844 393.634H59.1564C58.9511 394.371 58.5404 394.973 57.9244 395.44C57.3084 395.897 56.5431 396.126 55.6284 396.126C54.9004 396.126 54.2471 395.963 53.6684 395.636C53.0991 395.309 52.6511 394.847 52.3244 394.25C51.9978 393.643 51.8344 392.943 51.8344 392.15C51.8344 391.357 51.9931 390.661 52.3104 390.064C52.6278 389.467 53.0711 389.009 53.6404 388.692C54.2191 388.365 54.8818 388.202 55.6284 388.202C56.3564 388.202 57.0004 388.361 57.5604 388.678C58.1204 388.995 58.5498 389.434 58.8484 389.994C59.1564 390.545 59.3104 391.17 59.3104 391.87ZM57.9944 391.604C57.9944 391.119 57.8871 390.703 57.6724 390.358C57.4578 390.003 57.1638 389.737 56.7904 389.56C56.4264 389.373 56.0204 389.28 55.5724 389.28C54.9284 389.28 54.3778 389.485 53.9204 389.896C53.4724 390.307 53.2158 390.876 53.1504 391.604H57.9944ZM62.2661 389.574C62.4901 389.135 62.8074 388.795 63.2181 388.552C63.6381 388.309 64.1467 388.188 64.7441 388.188V389.504H64.4081C62.9801 389.504 62.2661 390.279 62.2661 391.828V396H60.9921V388.328H62.2661V389.574ZM76.5551 388.328L71.9351 399.612H70.6191L72.1311 395.916L69.0371 388.328H70.4511L72.8591 394.544L75.2391 388.328H76.5551ZM81.1818 396.126C80.4631 396.126 79.8098 395.963 79.2218 395.636C78.6431 395.309 78.1858 394.847 77.8498 394.25C77.5231 393.643 77.3598 392.943 77.3598 392.15C77.3598 391.366 77.5278 390.675 77.8638 390.078C78.2091 389.471 78.6758 389.009 79.2638 388.692C79.8518 388.365 80.5098 388.202 81.2378 388.202C81.9658 388.202 82.6238 388.365 83.2118 388.692C83.7998 389.009 84.2618 389.467 84.5978 390.064C84.9431 390.661 85.1158 391.357 85.1158 392.15C85.1158 392.943 84.9385 393.643 84.5838 394.25C84.2385 394.847 83.7671 395.309 83.1698 395.636C82.5725 395.963 81.9098 396.126 81.1818 396.126ZM81.1818 395.006C81.6391 395.006 82.0685 394.899 82.4698 394.684C82.8711 394.469 83.1931 394.147 83.4358 393.718C83.6878 393.289 83.8138 392.766 83.8138 392.15C83.8138 391.534 83.6925 391.011 83.4498 390.582C83.2071 390.153 82.8898 389.835 82.4978 389.63C82.1058 389.415 81.6811 389.308 81.2238 389.308C80.7571 389.308 80.3278 389.415 79.9358 389.63C79.5531 389.835 79.2451 390.153 79.0118 390.582C78.7785 391.011 78.6618 391.534 78.6618 392.15C78.6618 392.775 78.7738 393.303 78.9978 393.732C79.2311 394.161 79.5391 394.483 79.9218 394.698C80.3045 394.903 80.7245 395.006 81.1818 395.006ZM93.5949 388.328V396H92.3209V394.866C92.0782 395.258 91.7376 395.566 91.2989 395.79C90.8696 396.005 90.3936 396.112 89.8709 396.112C89.2736 396.112 88.7369 395.991 88.2609 395.748C87.7849 395.496 87.4069 395.123 87.1269 394.628C86.8562 394.133 86.7209 393.531 86.7209 392.822V388.328H87.9809V392.654C87.9809 393.41 88.1722 393.993 88.5549 394.404C88.9376 394.805 89.4602 395.006 90.1229 395.006C90.8042 395.006 91.3409 394.796 91.7329 394.376C92.1249 393.956 92.3209 393.345 92.3209 392.542V388.328H93.5949ZM97.02 389.574C97.244 389.135 97.5613 388.795 97.972 388.552C98.392 388.309 98.9006 388.188 99.498 388.188V389.504H99.162C97.734 389.504 97.02 390.279 97.02 391.828V396H95.746V388.328H97.02V389.574ZM107.557 394.824L109.937 388.328H111.295L108.285 396H106.801L103.791 388.328H105.163L107.557 394.824ZM119.549 391.87C119.549 392.113 119.535 392.369 119.507 392.64H113.375C113.421 393.396 113.678 393.989 114.145 394.418C114.621 394.838 115.195 395.048 115.867 395.048C116.417 395.048 116.875 394.922 117.239 394.67C117.612 394.409 117.873 394.063 118.023 393.634H119.395C119.189 394.371 118.779 394.973 118.163 395.44C117.547 395.897 116.781 396.126 115.867 396.126C115.139 396.126 114.485 395.963 113.907 395.636C113.337 395.309 112.889 394.847 112.563 394.25C112.236 393.643 112.073 392.943 112.073 392.15C112.073 391.357 112.231 390.661 112.549 390.064C112.866 389.467 113.309 389.009 113.879 388.692C114.457 388.365 115.12 388.202 115.867 388.202C116.595 388.202 117.239 388.361 117.799 388.678C118.359 388.995 118.788 389.434 119.087 389.994C119.395 390.545 119.549 391.17 119.549 391.87ZM118.233 391.604C118.233 391.119 118.125 390.703 117.911 390.358C117.696 390.003 117.402 389.737 117.029 389.56C116.665 389.373 116.259 389.28 115.811 389.28C115.167 389.28 114.616 389.485 114.159 389.896C113.711 390.307 113.454 390.876 113.389 391.604H118.233ZM122.504 389.574C122.728 389.135 123.046 388.795 123.456 388.552C123.876 388.309 124.385 388.188 124.982 388.188V389.504H124.646C123.218 389.504 122.504 390.279 122.504 391.828V396H121.23V388.328H122.504V389.574ZM127.111 387.082C126.868 387.082 126.663 386.998 126.495 386.83C126.327 386.662 126.243 386.457 126.243 386.214C126.243 385.971 126.327 385.766 126.495 385.598C126.663 385.43 126.868 385.346 127.111 385.346C127.344 385.346 127.54 385.43 127.699 385.598C127.867 385.766 127.951 385.971 127.951 386.214C127.951 386.457 127.867 386.662 127.699 386.83C127.54 386.998 127.344 387.082 127.111 387.082ZM127.727 388.328V396H126.453V388.328H127.727ZM133.02 389.378H131.41V396H130.136V389.378H129.142V388.328H130.136V387.782C130.136 386.923 130.356 386.298 130.794 385.906C131.242 385.505 131.956 385.304 132.936 385.304V386.368C132.376 386.368 131.98 386.48 131.746 386.704C131.522 386.919 131.41 387.278 131.41 387.782V388.328H133.02V389.378ZM135.164 387.082C134.921 387.082 134.716 386.998 134.548 386.83C134.38 386.662 134.296 386.457 134.296 386.214C134.296 385.971 134.38 385.766 134.548 385.598C134.716 385.43 134.921 385.346 135.164 385.346C135.397 385.346 135.593 385.43 135.752 385.598C135.92 385.766 136.004 385.971 136.004 386.214C136.004 386.457 135.92 386.662 135.752 386.83C135.593 386.998 135.397 387.082 135.164 387.082ZM135.78 388.328V396H134.506V388.328H135.78ZM137.475 392.15C137.475 391.357 137.634 390.666 137.951 390.078C138.268 389.481 138.707 389.019 139.267 388.692C139.836 388.365 140.485 388.202 141.213 388.202C142.156 388.202 142.93 388.431 143.537 388.888C144.153 389.345 144.559 389.98 144.755 390.792H143.383C143.252 390.325 142.996 389.957 142.613 389.686C142.24 389.415 141.773 389.28 141.213 389.28C140.485 389.28 139.897 389.532 139.449 390.036C139.001 390.531 138.777 391.235 138.777 392.15C138.777 393.074 139.001 393.788 139.449 394.292C139.897 394.796 140.485 395.048 141.213 395.048C141.773 395.048 142.24 394.917 142.613 394.656C142.986 394.395 143.243 394.021 143.383 393.536H144.755C144.55 394.32 144.139 394.95 143.523 395.426C142.907 395.893 142.137 396.126 141.213 396.126C140.485 396.126 139.836 395.963 139.267 395.636C138.707 395.309 138.268 394.847 137.951 394.25C137.634 393.653 137.475 392.953 137.475 392.15ZM145.979 392.136C145.979 391.352 146.138 390.666 146.455 390.078C146.772 389.481 147.206 389.019 147.757 388.692C148.317 388.365 148.938 388.202 149.619 388.202C150.291 388.202 150.874 388.347 151.369 388.636C151.864 388.925 152.232 389.289 152.475 389.728V388.328H153.763V396H152.475V394.572C152.223 395.02 151.845 395.393 151.341 395.692C150.846 395.981 150.268 396.126 149.605 396.126C148.924 396.126 148.308 395.958 147.757 395.622C147.206 395.286 146.772 394.815 146.455 394.208C146.138 393.601 145.979 392.911 145.979 392.136ZM152.475 392.15C152.475 391.571 152.358 391.067 152.125 390.638C151.892 390.209 151.574 389.882 151.173 389.658C150.781 389.425 150.347 389.308 149.871 389.308C149.395 389.308 148.961 389.42 148.569 389.644C148.177 389.868 147.864 390.195 147.631 390.624C147.398 391.053 147.281 391.557 147.281 392.136C147.281 392.724 147.398 393.237 147.631 393.676C147.864 394.105 148.177 394.437 148.569 394.67C148.961 394.894 149.395 395.006 149.871 395.006C150.347 395.006 150.781 394.894 151.173 394.67C151.574 394.437 151.892 394.105 152.125 393.676C152.358 393.237 152.475 392.729 152.475 392.15ZM157.47 389.378V393.9C157.47 394.273 157.549 394.539 157.708 394.698C157.867 394.847 158.142 394.922 158.534 394.922H159.472V396H158.324C157.615 396 157.083 395.837 156.728 395.51C156.373 395.183 156.196 394.647 156.196 393.9V389.378H155.202V388.328H156.196V386.396H157.47V388.328H159.472V389.378H157.47ZM161.674 387.082C161.431 387.082 161.226 386.998 161.058 386.83C160.89 386.662 160.806 386.457 160.806 386.214C160.806 385.971 160.89 385.766 161.058 385.598C161.226 385.43 161.431 385.346 161.674 385.346C161.907 385.346 162.103 385.43 162.262 385.598C162.43 385.766 162.514 385.971 162.514 386.214C162.514 386.457 162.43 386.662 162.262 386.83C162.103 386.998 161.907 387.082 161.674 387.082ZM162.29 388.328V396H161.016V388.328H162.29ZM167.807 396.126C167.088 396.126 166.435 395.963 165.847 395.636C165.268 395.309 164.811 394.847 164.475 394.25C164.148 393.643 163.985 392.943 163.985 392.15C163.985 391.366 164.153 390.675 164.489 390.078C164.834 389.471 165.301 389.009 165.889 388.692C166.477 388.365 167.135 388.202 167.863 388.202C168.591 388.202 169.249 388.365 169.837 388.692C170.425 389.009 170.887 389.467 171.223 390.064C171.568 390.661 171.741 391.357 171.741 392.15C171.741 392.943 171.563 393.643 171.209 394.25C170.863 394.847 170.392 395.309 169.795 395.636C169.197 395.963 168.535 396.126 167.807 396.126ZM167.807 395.006C168.264 395.006 168.693 394.899 169.095 394.684C169.496 394.469 169.818 394.147 170.061 393.718C170.313 393.289 170.439 392.766 170.439 392.15C170.439 391.534 170.317 391.011 170.075 390.582C169.832 390.153 169.515 389.835 169.123 389.63C168.731 389.415 168.306 389.308 167.849 389.308C167.382 389.308 166.953 389.415 166.561 389.63C166.178 389.835 165.87 390.153 165.637 390.582C165.403 391.011 165.287 391.534 165.287 392.15C165.287 392.775 165.399 393.303 165.623 393.732C165.856 394.161 166.164 394.483 166.547 394.698C166.929 394.903 167.349 395.006 167.807 395.006ZM177.154 388.188C178.087 388.188 178.843 388.473 179.422 389.042C180.001 389.602 180.29 390.414 180.29 391.478V396H179.03V391.66C179.03 390.895 178.839 390.311 178.456 389.91C178.073 389.499 177.551 389.294 176.888 389.294C176.216 389.294 175.679 389.504 175.278 389.924C174.886 390.344 174.69 390.955 174.69 391.758V396H173.416V388.328H174.69V389.42C174.942 389.028 175.283 388.725 175.712 388.51C176.151 388.295 176.631 388.188 177.154 388.188ZM185.627 392.15C185.627 391.357 185.786 390.666 186.103 390.078C186.421 389.481 186.859 389.019 187.419 388.692C187.989 388.365 188.637 388.202 189.365 388.202C190.308 388.202 191.083 388.431 191.689 388.888C192.305 389.345 192.711 389.98 192.907 390.792H191.535C191.405 390.325 191.148 389.957 190.765 389.686C190.392 389.415 189.925 389.28 189.365 389.28C188.637 389.28 188.049 389.532 187.601 390.036C187.153 390.531 186.929 391.235 186.929 392.15C186.929 393.074 187.153 393.788 187.601 394.292C188.049 394.796 188.637 395.048 189.365 395.048C189.925 395.048 190.392 394.917 190.765 394.656C191.139 394.395 191.395 394.021 191.535 393.536H192.907C192.702 394.32 192.291 394.95 191.675 395.426C191.059 395.893 190.289 396.126 189.365 396.126C188.637 396.126 187.989 395.963 187.419 395.636C186.859 395.309 186.421 394.847 186.103 394.25C185.786 393.653 185.627 392.953 185.627 392.15ZM197.953 396.126C197.235 396.126 196.581 395.963 195.993 395.636C195.415 395.309 194.957 394.847 194.621 394.25C194.295 393.643 194.131 392.943 194.131 392.15C194.131 391.366 194.299 390.675 194.635 390.078C194.981 389.471 195.447 389.009 196.035 388.692C196.623 388.365 197.281 388.202 198.009 388.202C198.737 388.202 199.395 388.365 199.983 388.692C200.571 389.009 201.033 389.467 201.369 390.064C201.715 390.661 201.887 391.357 201.887 392.15C201.887 392.943 201.71 393.643 201.355 394.25C201.01 394.847 200.539 395.309 199.941 395.636C199.344 395.963 198.681 396.126 197.953 396.126ZM197.953 395.006C198.411 395.006 198.84 394.899 199.241 394.684C199.643 394.469 199.965 394.147 200.207 393.718C200.459 393.289 200.585 392.766 200.585 392.15C200.585 391.534 200.464 391.011 200.221 390.582C199.979 390.153 199.661 389.835 199.269 389.63C198.877 389.415 198.453 389.308 197.995 389.308C197.529 389.308 197.099 389.415 196.707 389.63C196.325 389.835 196.017 390.153 195.783 390.582C195.55 391.011 195.433 391.534 195.433 392.15C195.433 392.775 195.545 393.303 195.769 393.732C196.003 394.161 196.311 394.483 196.693 394.698C197.076 394.903 197.496 395.006 197.953 395.006ZM203.086 392.136C203.086 391.352 203.245 390.666 203.562 390.078C203.88 389.481 204.314 389.019 204.864 388.692C205.424 388.365 206.05 388.202 206.74 388.202C207.338 388.202 207.893 388.342 208.406 388.622C208.92 388.893 209.312 389.252 209.582 389.7V385.64H210.87V396H209.582V394.558C209.33 395.015 208.957 395.393 208.462 395.692C207.968 395.981 207.389 396.126 206.726 396.126C206.045 396.126 205.424 395.958 204.864 395.622C204.314 395.286 203.88 394.815 203.562 394.208C203.245 393.601 203.086 392.911 203.086 392.136ZM209.582 392.15C209.582 391.571 209.466 391.067 209.232 390.638C208.999 390.209 208.682 389.882 208.28 389.658C207.888 389.425 207.454 389.308 206.978 389.308C206.502 389.308 206.068 389.42 205.676 389.644C205.284 389.868 204.972 390.195 204.738 390.624C204.505 391.053 204.388 391.557 204.388 392.136C204.388 392.724 204.505 393.237 204.738 393.676C204.972 394.105 205.284 394.437 205.676 394.67C206.068 394.894 206.502 395.006 206.978 395.006C207.454 395.006 207.888 394.894 208.28 394.67C208.682 394.437 208.999 394.105 209.232 393.676C209.466 393.237 209.582 392.729 209.582 392.15ZM220.023 391.87C220.023 392.113 220.009 392.369 219.981 392.64H213.849C213.896 393.396 214.153 393.989 214.619 394.418C215.095 394.838 215.669 395.048 216.341 395.048C216.892 395.048 217.349 394.922 217.713 394.67C218.087 394.409 218.348 394.063 218.497 393.634H219.869C219.664 394.371 219.253 394.973 218.637 395.44C218.021 395.897 217.256 396.126 216.341 396.126C215.613 396.126 214.96 395.963 214.381 395.636C213.812 395.309 213.364 394.847 213.037 394.25C212.711 393.643 212.547 392.943 212.547 392.15C212.547 391.357 212.706 390.661 213.023 390.064C213.341 389.467 213.784 389.009 214.353 388.692C214.932 388.365 215.595 388.202 216.341 388.202C217.069 388.202 217.713 388.361 218.273 388.678C218.833 388.995 219.263 389.434 219.561 389.994C219.869 390.545 220.023 391.17 220.023 391.87ZM218.707 391.604C218.707 391.119 218.6 390.703 218.385 390.358C218.171 390.003 217.877 389.737 217.503 389.56C217.139 389.373 216.733 389.28 216.285 389.28C215.641 389.28 215.091 389.485 214.633 389.896C214.185 390.307 213.929 390.876 213.863 391.604H218.707ZM226.991 389.378V393.9C226.991 394.273 227.071 394.539 227.229 394.698C227.388 394.847 227.663 394.922 228.055 394.922H228.993V396H227.845C227.136 396 226.604 395.837 226.249 395.51C225.895 395.183 225.717 394.647 225.717 393.9V389.378H224.723V388.328H225.717V386.396H226.991V388.328H228.993V389.378H226.991ZM234.345 388.188C234.924 388.188 235.446 388.314 235.913 388.566C236.38 388.809 236.744 389.177 237.005 389.672C237.276 390.167 237.411 390.769 237.411 391.478V396H236.151V391.66C236.151 390.895 235.96 390.311 235.577 389.91C235.194 389.499 234.672 389.294 234.009 389.294C233.337 389.294 232.8 389.504 232.399 389.924C232.007 390.344 231.811 390.955 231.811 391.758V396H230.537V385.64H231.811V389.42C232.063 389.028 232.408 388.725 232.847 388.51C233.295 388.295 233.794 388.188 234.345 388.188ZM239.016 392.136C239.016 391.352 239.175 390.666 239.492 390.078C239.809 389.481 240.243 389.019 240.794 388.692C241.354 388.365 241.975 388.202 242.656 388.202C243.328 388.202 243.911 388.347 244.406 388.636C244.901 388.925 245.269 389.289 245.512 389.728V388.328H246.8V396H245.512V394.572C245.26 395.02 244.882 395.393 244.378 395.692C243.883 395.981 243.305 396.126 242.642 396.126C241.961 396.126 241.345 395.958 240.794 395.622C240.243 395.286 239.809 394.815 239.492 394.208C239.175 393.601 239.016 392.911 239.016 392.136ZM245.512 392.15C245.512 391.571 245.395 391.067 245.162 390.638C244.929 390.209 244.611 389.882 244.21 389.658C243.818 389.425 243.384 389.308 242.908 389.308C242.432 389.308 241.998 389.42 241.606 389.644C241.214 389.868 240.901 390.195 240.668 390.624C240.435 391.053 240.318 391.557 240.318 392.136C240.318 392.724 240.435 393.237 240.668 393.676C240.901 394.105 241.214 394.437 241.606 394.67C241.998 394.894 242.432 395.006 242.908 395.006C243.384 395.006 243.818 394.894 244.21 394.67C244.611 394.437 244.929 394.105 245.162 393.676C245.395 393.237 245.512 392.729 245.512 392.15ZM250.507 389.378V393.9C250.507 394.273 250.586 394.539 250.745 394.698C250.904 394.847 251.179 394.922 251.571 394.922H252.509V396H251.361C250.652 396 250.12 395.837 249.765 395.51C249.41 395.183 249.233 394.647 249.233 393.9V389.378H248.239V388.328H249.233V386.396H250.507V388.328H252.509V389.378H250.507ZM268.005 388.328L265.611 396H264.295L262.447 389.91L260.599 396H259.283L256.875 388.328H258.177L259.941 394.768L261.845 388.328H263.147L265.009 394.782L266.745 388.328H268.005ZM276.269 391.87C276.269 392.113 276.255 392.369 276.227 392.64H270.095C270.142 393.396 270.399 393.989 270.865 394.418C271.341 394.838 271.915 395.048 272.587 395.048C273.138 395.048 273.595 394.922 273.959 394.67C274.333 394.409 274.594 394.063 274.743 393.634H276.115C275.91 394.371 275.499 394.973 274.883 395.44C274.267 395.897 273.502 396.126 272.587 396.126C271.859 396.126 271.206 395.963 270.627 395.636C270.058 395.309 269.61 394.847 269.283 394.25C268.957 393.643 268.793 392.943 268.793 392.15C268.793 391.357 268.952 390.661 269.269 390.064C269.587 389.467 270.03 389.009 270.599 388.692C271.178 388.365 271.841 388.202 272.587 388.202C273.315 388.202 273.959 388.361 274.519 388.678C275.079 388.995 275.509 389.434 275.807 389.994C276.115 390.545 276.269 391.17 276.269 391.87ZM274.953 391.604C274.953 391.119 274.846 390.703 274.631 390.358C274.417 390.003 274.123 389.737 273.749 389.56C273.385 389.373 272.979 389.28 272.531 389.28C271.887 389.28 271.337 389.485 270.879 389.896C270.431 390.307 270.175 390.876 270.109 391.604H274.953ZM284.399 396.126C283.811 396.126 283.284 396.028 282.817 395.832C282.351 395.627 281.982 395.347 281.711 394.992C281.441 394.628 281.291 394.213 281.263 393.746H282.579C282.617 394.129 282.794 394.441 283.111 394.684C283.438 394.927 283.863 395.048 284.385 395.048C284.871 395.048 285.253 394.941 285.533 394.726C285.813 394.511 285.953 394.241 285.953 393.914C285.953 393.578 285.804 393.331 285.505 393.172C285.207 393.004 284.745 392.841 284.119 392.682C283.55 392.533 283.083 392.383 282.719 392.234C282.365 392.075 282.057 391.847 281.795 391.548C281.543 391.24 281.417 390.839 281.417 390.344C281.417 389.952 281.534 389.593 281.767 389.266C282.001 388.939 282.332 388.683 282.761 388.496C283.191 388.3 283.681 388.202 284.231 388.202C285.081 388.202 285.767 388.417 286.289 388.846C286.812 389.275 287.092 389.863 287.129 390.61H285.855C285.827 390.209 285.664 389.887 285.365 389.644C285.076 389.401 284.684 389.28 284.189 389.28C283.732 389.28 283.368 389.378 283.097 389.574C282.827 389.77 282.691 390.027 282.691 390.344C282.691 390.596 282.771 390.806 282.929 390.974C283.097 391.133 283.303 391.263 283.545 391.366C283.797 391.459 284.143 391.567 284.581 391.688C285.132 391.837 285.58 391.987 285.925 392.136C286.271 392.276 286.565 392.491 286.807 392.78C287.059 393.069 287.19 393.447 287.199 393.914C287.199 394.334 287.083 394.712 286.849 395.048C286.616 395.384 286.285 395.65 285.855 395.846C285.435 396.033 284.95 396.126 284.399 396.126ZM295.998 391.87C295.998 392.113 295.984 392.369 295.956 392.64H289.824C289.871 393.396 290.127 393.989 290.594 394.418C291.07 394.838 291.644 395.048 292.316 395.048C292.867 395.048 293.324 394.922 293.688 394.67C294.061 394.409 294.323 394.063 294.472 393.634H295.844C295.639 394.371 295.228 394.973 294.612 395.44C293.996 395.897 293.231 396.126 292.316 396.126C291.588 396.126 290.935 395.963 290.356 395.636C289.787 395.309 289.339 394.847 289.012 394.25C288.685 393.643 288.522 392.943 288.522 392.15C288.522 391.357 288.681 390.661 288.998 390.064C289.315 389.467 289.759 389.009 290.328 388.692C290.907 388.365 291.569 388.202 292.316 388.202C293.044 388.202 293.688 388.361 294.248 388.678C294.808 388.995 295.237 389.434 295.536 389.994C295.844 390.545 295.998 391.17 295.998 391.87ZM294.682 391.604C294.682 391.119 294.575 390.703 294.36 390.358C294.145 390.003 293.851 389.737 293.478 389.56C293.114 389.373 292.708 389.28 292.26 389.28C291.616 389.28 291.065 389.485 290.608 389.896C290.16 390.307 289.903 390.876 289.838 391.604H294.682ZM301.418 388.188C302.351 388.188 303.107 388.473 303.686 389.042C304.264 389.602 304.554 390.414 304.554 391.478V396H303.294V391.66C303.294 390.895 303.102 390.311 302.72 389.91C302.337 389.499 301.814 389.294 301.152 389.294C300.48 389.294 299.943 389.504 299.542 389.924C299.15 390.344 298.954 390.955 298.954 391.758V396H297.68V388.328H298.954V389.42C299.206 389.028 299.546 388.725 299.976 388.51C300.414 388.295 300.895 388.188 301.418 388.188ZM308.189 389.378V393.9C308.189 394.273 308.268 394.539 308.427 394.698C308.585 394.847 308.861 394.922 309.253 394.922H310.191V396H309.043C308.333 396 307.801 395.837 307.447 395.51C307.092 395.183 306.915 394.647 306.915 393.9V389.378H305.921V388.328H306.915V386.396H308.189V388.328H310.191V389.378H308.189ZM322.075 388.328L317.455 399.612H316.139L317.651 395.916L314.557 388.328H315.971L318.379 394.544L320.759 388.328H322.075ZM326.701 396.126C325.983 396.126 325.329 395.963 324.741 395.636C324.163 395.309 323.705 394.847 323.369 394.25C323.043 393.643 322.879 392.943 322.879 392.15C322.879 391.366 323.047 390.675 323.383 390.078C323.729 389.471 324.195 389.009 324.783 388.692C325.371 388.365 326.029 388.202 326.757 388.202C327.485 388.202 328.143 388.365 328.731 388.692C329.319 389.009 329.781 389.467 330.117 390.064C330.463 390.661 330.635 391.357 330.635 392.15C330.635 392.943 330.458 393.643 330.103 394.25C329.758 394.847 329.287 395.309 328.689 395.636C328.092 395.963 327.429 396.126 326.701 396.126ZM326.701 395.006C327.159 395.006 327.588 394.899 327.989 394.684C328.391 394.469 328.713 394.147 328.955 393.718C329.207 393.289 329.333 392.766 329.333 392.15C329.333 391.534 329.212 391.011 328.969 390.582C328.727 390.153 328.409 389.835 328.017 389.63C327.625 389.415 327.201 389.308 326.743 389.308C326.277 389.308 325.847 389.415 325.455 389.63C325.073 389.835 324.765 390.153 324.531 390.582C324.298 391.011 324.181 391.534 324.181 392.15C324.181 392.775 324.293 393.303 324.517 393.732C324.751 394.161 325.059 394.483 325.441 394.698C325.824 394.903 326.244 395.006 326.701 395.006ZM339.114 388.328V396H337.84V394.866C337.598 395.258 337.257 395.566 336.818 395.79C336.389 396.005 335.913 396.112 335.39 396.112C334.793 396.112 334.256 395.991 333.78 395.748C333.304 395.496 332.926 395.123 332.646 394.628C332.376 394.133 332.24 393.531 332.24 392.822V388.328H333.5V392.654C333.5 393.41 333.692 393.993 334.074 394.404C334.457 394.805 334.98 395.006 335.642 395.006C336.324 395.006 336.86 394.796 337.252 394.376C337.644 393.956 337.84 393.345 337.84 392.542V388.328H339.114ZM346.552 389.378V393.9C346.552 394.273 346.631 394.539 346.79 394.698C346.949 394.847 347.224 394.922 347.616 394.922H348.554V396H347.406C346.697 396 346.165 395.837 345.81 395.51C345.455 395.183 345.278 394.647 345.278 393.9V389.378H344.284V388.328H345.278V386.396H346.552V388.328H348.554V389.378H346.552ZM353.906 388.188C354.484 388.188 355.007 388.314 355.474 388.566C355.94 388.809 356.304 389.177 356.566 389.672C356.836 390.167 356.972 390.769 356.972 391.478V396H355.712V391.66C355.712 390.895 355.52 390.311 355.138 389.91C354.755 389.499 354.232 389.294 353.57 389.294C352.898 389.294 352.361 389.504 351.96 389.924C351.568 390.344 351.372 390.955 351.372 391.758V396H350.098V385.64H351.372V389.42C351.624 389.028 351.969 388.725 352.408 388.51C352.856 388.295 353.355 388.188 353.906 388.188ZM360.327 389.574C360.551 389.135 360.868 388.795 361.279 388.552C361.699 388.309 362.207 388.188 362.805 388.188V389.504H362.469C361.041 389.504 360.327 390.279 360.327 391.828V396H359.053V388.328H360.327V389.574ZM367.621 396.126C366.903 396.126 366.249 395.963 365.661 395.636C365.083 395.309 364.625 394.847 364.289 394.25C363.963 393.643 363.799 392.943 363.799 392.15C363.799 391.366 363.967 390.675 364.303 390.078C364.649 389.471 365.115 389.009 365.703 388.692C366.291 388.365 366.949 388.202 367.677 388.202C368.405 388.202 369.063 388.365 369.651 388.692C370.239 389.009 370.701 389.467 371.037 390.064C371.383 390.661 371.555 391.357 371.555 392.15C371.555 392.943 371.378 393.643 371.023 394.25C370.678 394.847 370.207 395.309 369.609 395.636C369.012 395.963 368.349 396.126 367.621 396.126ZM367.621 395.006C368.079 395.006 368.508 394.899 368.909 394.684C369.311 394.469 369.633 394.147 369.875 393.718C370.127 393.289 370.253 392.766 370.253 392.15C370.253 391.534 370.132 391.011 369.889 390.582C369.647 390.153 369.329 389.835 368.937 389.63C368.545 389.415 368.121 389.308 367.663 389.308C367.197 389.308 366.767 389.415 366.375 389.63C365.993 389.835 365.685 390.153 365.451 390.582C365.218 391.011 365.101 391.534 365.101 392.15C365.101 392.775 365.213 393.303 365.437 393.732C365.671 394.161 365.979 394.483 366.361 394.698C366.744 394.903 367.164 395.006 367.621 395.006ZM380.034 388.328V396H378.76V394.866C378.518 395.258 378.177 395.566 377.738 395.79C377.309 396.005 376.833 396.112 376.31 396.112C375.713 396.112 375.176 395.991 374.7 395.748C374.224 395.496 373.846 395.123 373.566 394.628C373.296 394.133 373.16 393.531 373.16 392.822V388.328H374.42V392.654C374.42 393.41 374.612 393.993 374.994 394.404C375.377 394.805 375.9 395.006 376.562 395.006C377.244 395.006 377.78 394.796 378.172 394.376C378.564 393.956 378.76 393.345 378.76 392.542V388.328H380.034ZM385.349 388.202C386.012 388.202 386.591 388.347 387.085 388.636C387.589 388.925 387.963 389.289 388.205 389.728V388.328H389.493V396.168C389.493 396.868 389.344 397.489 389.045 398.03C388.747 398.581 388.317 399.01 387.757 399.318C387.207 399.626 386.563 399.78 385.825 399.78C384.817 399.78 383.977 399.542 383.305 399.066C382.633 398.59 382.237 397.941 382.115 397.12H383.375C383.515 397.587 383.805 397.96 384.243 398.24C384.682 398.529 385.209 398.674 385.825 398.674C386.525 398.674 387.095 398.455 387.533 398.016C387.981 397.577 388.205 396.961 388.205 396.168V394.558C387.953 395.006 387.58 395.379 387.085 395.678C386.591 395.977 386.012 396.126 385.349 396.126C384.668 396.126 384.047 395.958 383.487 395.622C382.937 395.286 382.503 394.815 382.185 394.208C381.868 393.601 381.709 392.911 381.709 392.136C381.709 391.352 381.868 390.666 382.185 390.078C382.503 389.481 382.937 389.019 383.487 388.692C384.047 388.365 384.668 388.202 385.349 388.202ZM388.205 392.15C388.205 391.571 388.089 391.067 387.855 390.638C387.622 390.209 387.305 389.882 386.903 389.658C386.511 389.425 386.077 389.308 385.601 389.308C385.125 389.308 384.691 389.42 384.299 389.644C383.907 389.868 383.595 390.195 383.361 390.624C383.128 391.053 383.011 391.557 383.011 392.136C383.011 392.724 383.128 393.237 383.361 393.676C383.595 394.105 383.907 394.437 384.299 394.67C384.691 394.894 385.125 395.006 385.601 395.006C386.077 395.006 386.511 394.894 386.903 394.67C387.305 394.437 387.622 394.105 387.855 393.676C388.089 393.237 388.205 392.729 388.205 392.15ZM395.454 388.188C396.033 388.188 396.556 388.314 397.022 388.566C397.489 388.809 397.853 389.177 398.114 389.672C398.385 390.167 398.52 390.769 398.52 391.478V396H397.26V391.66C397.26 390.895 397.069 390.311 396.686 389.91C396.304 389.499 395.781 389.294 395.118 389.294C394.446 389.294 393.91 389.504 393.508 389.924C393.116 390.344 392.92 390.955 392.92 391.758V396H391.646V385.64H392.92V389.42C393.172 389.028 393.518 388.725 393.956 388.51C394.404 388.295 394.904 388.188 395.454 388.188ZM37.686 409.328L33.066 420.612H31.75L33.262 416.916L30.168 409.328H31.582L33.99 415.544L36.37 409.328H37.686ZM42.3127 417.126C41.594 417.126 40.9407 416.963 40.3527 416.636C39.774 416.309 39.3167 415.847 38.9807 415.25C38.654 414.643 38.4907 413.943 38.4907 413.15C38.4907 412.366 38.6587 411.675 38.9947 411.078C39.34 410.471 39.8067 410.009 40.3947 409.692C40.9827 409.365 41.6407 409.202 42.3687 409.202C43.0967 409.202 43.7547 409.365 44.3427 409.692C44.9307 410.009 45.3927 410.467 45.7287 411.064C46.074 411.661 46.2467 412.357 46.2467 413.15C46.2467 413.943 46.0693 414.643 45.7147 415.25C45.3693 415.847 44.898 416.309 44.3007 416.636C43.7033 416.963 43.0407 417.126 42.3127 417.126ZM42.3127 416.006C42.77 416.006 43.1993 415.899 43.6007 415.684C44.002 415.469 44.324 415.147 44.5667 414.718C44.8187 414.289 44.9447 413.766 44.9447 413.15C44.9447 412.534 44.8233 412.011 44.5807 411.582C44.338 411.153 44.0207 410.835 43.6287 410.63C43.2367 410.415 42.812 410.308 42.3547 410.308C41.888 410.308 41.4587 410.415 41.0667 410.63C40.684 410.835 40.376 411.153 40.1427 411.582C39.9093 412.011 39.7927 412.534 39.7927 413.15C39.7927 413.775 39.9047 414.303 40.1287 414.732C40.362 415.161 40.67 415.483 41.0527 415.698C41.4353 415.903 41.8553 416.006 42.3127 416.006ZM54.7258 409.328V417H53.4518V415.866C53.2091 416.258 52.8684 416.566 52.4298 416.79C52.0004 417.005 51.5244 417.112 51.0018 417.112C50.4044 417.112 49.8678 416.991 49.3918 416.748C48.9158 416.496 48.5378 416.123 48.2578 415.628C47.9871 415.133 47.8518 414.531 47.8518 413.822V409.328H49.1118V413.654C49.1118 414.41 49.3031 414.993 49.6858 415.404C50.0684 415.805 50.5911 416.006 51.2538 416.006C51.9351 416.006 52.4718 415.796 52.8638 415.376C53.2558 414.956 53.4518 414.345 53.4518 413.542V409.328H54.7258ZM58.1508 410.574C58.3748 410.135 58.6922 409.795 59.1028 409.552C59.5228 409.309 60.0315 409.188 60.6288 409.188V410.504H60.2928C58.8648 410.504 58.1508 411.279 58.1508 412.828V417H56.8768V409.328H58.1508V410.574ZM72.8319 412.87C72.8319 413.113 72.8179 413.369 72.7899 413.64H66.6579C66.7046 414.396 66.9612 414.989 67.4279 415.418C67.9039 415.838 68.4779 416.048 69.1499 416.048C69.7006 416.048 70.1579 415.922 70.5219 415.67C70.8952 415.409 71.1566 415.063 71.3059 414.634H72.6779C72.4726 415.371 72.0619 415.973 71.4459 416.44C70.8299 416.897 70.0646 417.126 69.1499 417.126C68.4219 417.126 67.7686 416.963 67.1899 416.636C66.6206 416.309 66.1726 415.847 65.8459 415.25C65.5192 414.643 65.3559 413.943 65.3559 413.15C65.3559 412.357 65.5146 411.661 65.8319 411.064C66.1492 410.467 66.5926 410.009 67.1619 409.692C67.7406 409.365 68.4032 409.202 69.1499 409.202C69.8779 409.202 70.5219 409.361 71.0819 409.678C71.6419 409.995 72.0712 410.434 72.3699 410.994C72.6779 411.545 72.8319 412.17 72.8319 412.87ZM71.5159 412.604C71.5159 412.119 71.4086 411.703 71.1939 411.358C70.9792 411.003 70.6852 410.737 70.3119 410.56C69.9479 410.373 69.5419 410.28 69.0939 410.28C68.4499 410.28 67.8992 410.485 67.4419 410.896C66.9939 411.307 66.7372 411.876 66.6719 412.604H71.5159ZM79.8335 411.33V412.408H74.2475V411.33H79.8335ZM91.4505 409.188C92.0478 409.188 92.5798 409.314 93.0465 409.566C93.5132 409.809 93.8818 410.177 94.1525 410.672C94.4232 411.167 94.5585 411.769 94.5585 412.478V417H93.2985V412.66C93.2985 411.895 93.1072 411.311 92.7245 410.91C92.3512 410.499 91.8425 410.294 91.1985 410.294C90.5358 410.294 90.0085 410.509 89.6165 410.938C89.2245 411.358 89.0285 411.969 89.0285 412.772V417H87.7685V412.66C87.7685 411.895 87.5772 411.311 87.1945 410.91C86.8212 410.499 86.3125 410.294 85.6685 410.294C85.0058 410.294 84.4785 410.509 84.0865 410.938C83.6945 411.358 83.4985 411.969 83.4985 412.772V417H82.2245V409.328H83.4985V410.434C83.7505 410.033 84.0865 409.725 84.5065 409.51C84.9358 409.295 85.4072 409.188 85.9205 409.188C86.5645 409.188 87.1338 409.333 87.6285 409.622C88.1232 409.911 88.4918 410.336 88.7345 410.896C88.9492 410.355 89.3038 409.935 89.7985 409.636C90.2932 409.337 90.8438 409.188 91.4505 409.188ZM96.1723 413.136C96.1723 412.352 96.331 411.666 96.6483 411.078C96.9656 410.481 97.3996 410.019 97.9503 409.692C98.5103 409.365 99.131 409.202 99.8123 409.202C100.484 409.202 101.068 409.347 101.562 409.636C102.057 409.925 102.426 410.289 102.668 410.728V409.328H103.956V417H102.668V415.572C102.416 416.02 102.038 416.393 101.534 416.692C101.04 416.981 100.461 417.126 99.7983 417.126C99.117 417.126 98.501 416.958 97.9503 416.622C97.3996 416.286 96.9656 415.815 96.6483 415.208C96.331 414.601 96.1723 413.911 96.1723 413.136ZM102.668 413.15C102.668 412.571 102.552 412.067 102.318 411.638C102.085 411.209 101.768 410.882 101.366 410.658C100.974 410.425 100.54 410.308 100.064 410.308C99.5883 410.308 99.1543 410.42 98.7623 410.644C98.3703 410.868 98.0576 411.195 97.8243 411.624C97.591 412.053 97.4743 412.557 97.4743 413.136C97.4743 413.724 97.591 414.237 97.8243 414.676C98.0576 415.105 98.3703 415.437 98.7623 415.67C99.1543 415.894 99.5883 416.006 100.064 416.006C100.54 416.006 100.974 415.894 101.366 415.67C101.768 415.437 102.085 415.105 102.318 414.676C102.552 414.237 102.668 413.729 102.668 413.15ZM106.767 408.082C106.525 408.082 106.319 407.998 106.151 407.83C105.983 407.662 105.899 407.457 105.899 407.214C105.899 406.971 105.983 406.766 106.151 406.598C106.319 406.43 106.525 406.346 106.767 406.346C107.001 406.346 107.197 406.43 107.355 406.598C107.523 406.766 107.607 406.971 107.607 407.214C107.607 407.457 107.523 407.662 107.355 407.83C107.197 407.998 107.001 408.082 106.767 408.082ZM107.383 409.328V417H106.109V409.328H107.383ZM110.829 406.64V417H109.555V406.64H110.829ZM120.078 417.126C119.36 417.126 118.706 416.963 118.118 416.636C117.54 416.309 117.082 415.847 116.746 415.25C116.42 414.643 116.256 413.943 116.256 413.15C116.256 412.366 116.424 411.675 116.76 411.078C117.106 410.471 117.572 410.009 118.16 409.692C118.748 409.365 119.406 409.202 120.134 409.202C120.862 409.202 121.52 409.365 122.108 409.692C122.696 410.009 123.158 410.467 123.494 411.064C123.84 411.661 124.012 412.357 124.012 413.15C124.012 413.943 123.835 414.643 123.48 415.25C123.135 415.847 122.664 416.309 122.066 416.636C121.469 416.963 120.806 417.126 120.078 417.126ZM120.078 416.006C120.536 416.006 120.965 415.899 121.366 415.684C121.768 415.469 122.09 415.147 122.332 414.718C122.584 414.289 122.71 413.766 122.71 413.15C122.71 412.534 122.589 412.011 122.346 411.582C122.104 411.153 121.786 410.835 121.394 410.63C121.002 410.415 120.578 410.308 120.12 410.308C119.654 410.308 119.224 410.415 118.832 410.63C118.45 410.835 118.142 411.153 117.908 411.582C117.675 412.011 117.558 412.534 117.558 413.15C117.558 413.775 117.67 414.303 117.894 414.732C118.128 415.161 118.436 415.483 118.818 415.698C119.201 415.903 119.621 416.006 120.078 416.006ZM126.961 410.574C127.185 410.135 127.503 409.795 127.913 409.552C128.333 409.309 128.842 409.188 129.439 409.188V410.504H129.103C127.675 410.504 126.961 411.279 126.961 412.828V417H125.687V409.328H126.961V410.574ZM135.916 410.742C136.168 410.303 136.542 409.939 137.036 409.65C137.54 409.351 138.124 409.202 138.786 409.202C139.468 409.202 140.084 409.365 140.634 409.692C141.194 410.019 141.633 410.481 141.95 411.078C142.268 411.666 142.426 412.352 142.426 413.136C142.426 413.911 142.268 414.601 141.95 415.208C141.633 415.815 141.194 416.286 140.634 416.622C140.084 416.958 139.468 417.126 138.786 417.126C138.133 417.126 137.554 416.981 137.05 416.692C136.556 416.393 136.178 416.025 135.916 415.586V420.64H134.642V409.328H135.916V410.742ZM141.124 413.136C141.124 412.557 141.008 412.053 140.774 411.624C140.541 411.195 140.224 410.868 139.822 410.644C139.43 410.42 138.996 410.308 138.52 410.308C138.054 410.308 137.62 410.425 137.218 410.658C136.826 410.882 136.509 411.213 136.266 411.652C136.033 412.081 135.916 412.581 135.916 413.15C135.916 413.729 136.033 414.237 136.266 414.676C136.509 415.105 136.826 415.437 137.218 415.67C137.62 415.894 138.054 416.006 138.52 416.006C138.996 416.006 139.43 415.894 139.822 415.67C140.224 415.437 140.541 415.105 140.774 414.676C141.008 414.237 141.124 413.724 141.124 413.136ZM147.911 409.188C148.49 409.188 149.013 409.314 149.479 409.566C149.946 409.809 150.31 410.177 150.571 410.672C150.842 411.167 150.977 411.769 150.977 412.478V417H149.717V412.66C149.717 411.895 149.526 411.311 149.143 410.91C148.761 410.499 148.238 410.294 147.575 410.294C146.903 410.294 146.367 410.504 145.965 410.924C145.573 411.344 145.377 411.955 145.377 412.758V417H144.103V406.64H145.377V410.42C145.629 410.028 145.975 409.725 146.413 409.51C146.861 409.295 147.361 409.188 147.911 409.188ZM156.404 417.126C155.686 417.126 155.032 416.963 154.444 416.636C153.866 416.309 153.408 415.847 153.072 415.25C152.746 414.643 152.582 413.943 152.582 413.15C152.582 412.366 152.75 411.675 153.086 411.078C153.432 410.471 153.898 410.009 154.486 409.692C155.074 409.365 155.732 409.202 156.46 409.202C157.188 409.202 157.846 409.365 158.434 409.692C159.022 410.009 159.484 410.467 159.82 411.064C160.166 411.661 160.338 412.357 160.338 413.15C160.338 413.943 160.161 414.643 159.806 415.25C159.461 415.847 158.99 416.309 158.392 416.636C157.795 416.963 157.132 417.126 156.404 417.126ZM156.404 416.006C156.862 416.006 157.291 415.899 157.692 415.684C158.094 415.469 158.416 415.147 158.658 414.718C158.91 414.289 159.036 413.766 159.036 413.15C159.036 412.534 158.915 412.011 158.672 411.582C158.43 411.153 158.112 410.835 157.72 410.63C157.328 410.415 156.904 410.308 156.446 410.308C155.98 410.308 155.55 410.415 155.158 410.63C154.776 410.835 154.468 411.153 154.234 411.582C154.001 412.011 153.884 412.534 153.884 413.15C153.884 413.775 153.996 414.303 154.22 414.732C154.454 415.161 154.762 415.483 155.144 415.698C155.527 415.903 155.947 416.006 156.404 416.006ZM165.752 409.188C166.685 409.188 167.441 409.473 168.02 410.042C168.598 410.602 168.888 411.414 168.888 412.478V417H167.628V412.66C167.628 411.895 167.436 411.311 167.054 410.91C166.671 410.499 166.148 410.294 165.486 410.294C164.814 410.294 164.277 410.504 163.876 410.924C163.484 411.344 163.288 411.955 163.288 412.758V417H162.014V409.328H163.288V410.42C163.54 410.028 163.88 409.725 164.31 409.51C164.748 409.295 165.229 409.188 165.752 409.188ZM177.969 412.87C177.969 413.113 177.955 413.369 177.927 413.64H171.795C171.841 414.396 172.098 414.989 172.565 415.418C173.041 415.838 173.615 416.048 174.287 416.048C174.837 416.048 175.295 415.922 175.659 415.67C176.032 415.409 176.293 415.063 176.443 414.634H177.815C177.609 415.371 177.199 415.973 176.583 416.44C175.967 416.897 175.201 417.126 174.287 417.126C173.559 417.126 172.905 416.963 172.327 416.636C171.757 416.309 171.309 415.847 170.983 415.25C170.656 414.643 170.493 413.943 170.493 413.15C170.493 412.357 170.651 411.661 170.969 411.064C171.286 410.467 171.729 410.009 172.299 409.692C172.877 409.365 173.54 409.202 174.287 409.202C175.015 409.202 175.659 409.361 176.219 409.678C176.779 409.995 177.208 410.434 177.507 410.994C177.815 411.545 177.969 412.17 177.969 412.87ZM176.653 412.604C176.653 412.119 176.545 411.703 176.331 411.358C176.116 411.003 175.822 410.737 175.449 410.56C175.085 410.373 174.679 410.28 174.231 410.28C173.587 410.28 173.036 410.485 172.579 410.896C172.131 411.307 171.874 411.876 171.809 412.604H176.653ZM187.121 409.188C188.054 409.188 188.81 409.473 189.389 410.042C189.967 410.602 190.257 411.414 190.257 412.478V417H188.997V412.66C188.997 411.895 188.805 411.311 188.423 410.91C188.04 410.499 187.517 410.294 186.855 410.294C186.183 410.294 185.646 410.504 185.245 410.924C184.853 411.344 184.657 411.955 184.657 412.758V417H183.383V409.328H184.657V410.42C184.909 410.028 185.249 409.725 185.679 409.51C186.117 409.295 186.598 409.188 187.121 409.188ZM199.142 409.328V417H197.868V415.866C197.625 416.258 197.284 416.566 196.846 416.79C196.416 417.005 195.94 417.112 195.418 417.112C194.82 417.112 194.284 416.991 193.808 416.748C193.332 416.496 192.954 416.123 192.674 415.628C192.403 415.133 192.268 414.531 192.268 413.822V409.328H193.528V413.654C193.528 414.41 193.719 414.993 194.102 415.404C194.484 415.805 195.007 416.006 195.67 416.006C196.351 416.006 196.888 415.796 197.28 415.376C197.672 414.956 197.868 414.345 197.868 413.542V409.328H199.142ZM210.519 409.188C211.116 409.188 211.648 409.314 212.115 409.566C212.582 409.809 212.95 410.177 213.221 410.672C213.492 411.167 213.627 411.769 213.627 412.478V417H212.367V412.66C212.367 411.895 212.176 411.311 211.793 410.91C211.42 410.499 210.911 410.294 210.267 410.294C209.604 410.294 209.077 410.509 208.685 410.938C208.293 411.358 208.097 411.969 208.097 412.772V417H206.837V412.66C206.837 411.895 206.646 411.311 206.263 410.91C205.89 410.499 205.381 410.294 204.737 410.294C204.074 410.294 203.547 410.509 203.155 410.938C202.763 411.358 202.567 411.969 202.567 412.772V417H201.293V409.328H202.567V410.434C202.819 410.033 203.155 409.725 203.575 409.51C204.004 409.295 204.476 409.188 204.989 409.188C205.633 409.188 206.202 409.333 206.697 409.622C207.192 409.911 207.56 410.336 207.803 410.896C208.018 410.355 208.372 409.935 208.867 409.636C209.362 409.337 209.912 409.188 210.519 409.188ZM216.991 410.756C217.252 410.299 217.635 409.925 218.139 409.636C218.643 409.347 219.217 409.202 219.861 409.202C220.551 409.202 221.172 409.365 221.723 409.692C222.273 410.019 222.707 410.481 223.025 411.078C223.342 411.666 223.501 412.352 223.501 413.136C223.501 413.911 223.342 414.601 223.025 415.208C222.707 415.815 222.269 416.286 221.709 416.622C221.158 416.958 220.542 417.126 219.861 417.126C219.198 417.126 218.615 416.981 218.111 416.692C217.616 416.403 217.243 416.034 216.991 415.586V417H215.717V406.64H216.991V410.756ZM222.199 413.136C222.199 412.557 222.082 412.053 221.849 411.624C221.615 411.195 221.298 410.868 220.897 410.644C220.505 410.42 220.071 410.308 219.595 410.308C219.128 410.308 218.694 410.425 218.293 410.658C217.901 410.882 217.583 411.213 217.341 411.652C217.107 412.081 216.991 412.581 216.991 413.15C216.991 413.729 217.107 414.237 217.341 414.676C217.583 415.105 217.901 415.437 218.293 415.67C218.694 415.894 219.128 416.006 219.595 416.006C220.071 416.006 220.505 415.894 220.897 415.67C221.298 415.437 221.615 415.105 221.849 414.676C222.082 414.237 222.199 413.724 222.199 413.136ZM232.178 412.87C232.178 413.113 232.164 413.369 232.136 413.64H226.004C226.05 414.396 226.307 414.989 226.774 415.418C227.25 415.838 227.824 416.048 228.496 416.048C229.046 416.048 229.504 415.922 229.868 415.67C230.241 415.409 230.502 415.063 230.652 414.634H232.024C231.818 415.371 231.408 415.973 230.792 416.44C230.176 416.897 229.41 417.126 228.496 417.126C227.768 417.126 227.114 416.963 226.536 416.636C225.966 416.309 225.518 415.847 225.192 415.25C224.865 414.643 224.702 413.943 224.702 413.15C224.702 412.357 224.86 411.661 225.178 411.064C225.495 410.467 225.938 410.009 226.508 409.692C227.086 409.365 227.749 409.202 228.496 409.202C229.224 409.202 229.868 409.361 230.428 409.678C230.988 409.995 231.417 410.434 231.716 410.994C232.024 411.545 232.178 412.17 232.178 412.87ZM230.862 412.604C230.862 412.119 230.754 411.703 230.54 411.358C230.325 411.003 230.031 410.737 229.658 410.56C229.294 410.373 228.888 410.28 228.44 410.28C227.796 410.28 227.245 410.485 226.788 410.896C226.34 411.307 226.083 411.876 226.018 412.604H230.862ZM235.133 410.574C235.357 410.135 235.675 409.795 236.085 409.552C236.505 409.309 237.014 409.188 237.611 409.188V410.504H237.275C235.847 410.504 235.133 411.279 235.133 412.828V417H233.859V409.328H235.133V410.574ZM239.488 417.084C239.245 417.084 239.04 417 238.872 416.832C238.704 416.664 238.62 416.459 238.62 416.216C238.62 415.973 238.704 415.768 238.872 415.6C239.04 415.432 239.245 415.348 239.488 415.348C239.721 415.348 239.917 415.432 240.076 415.6C240.244 415.768 240.328 415.973 240.328 416.216C240.328 416.459 240.244 416.664 240.076 416.832C239.917 417 239.721 417.084 239.488 417.084Z" fill="white"/>
<path d="M311.216 660L308.892 656.01H307.352V660H306.078V650.242H309.228C309.965 650.242 310.586 650.368 311.09 650.62C311.603 650.872 311.986 651.213 312.238 651.642C312.49 652.071 312.616 652.561 312.616 653.112C312.616 653.784 312.42 654.377 312.028 654.89C311.645 655.403 311.067 655.744 310.292 655.912L312.742 660H311.216ZM307.352 654.988H309.228C309.919 654.988 310.437 654.82 310.782 654.484C311.127 654.139 311.3 653.681 311.3 653.112C311.3 652.533 311.127 652.085 310.782 651.768C310.446 651.451 309.928 651.292 309.228 651.292H307.352V654.988ZM321.596 655.87C321.596 656.113 321.582 656.369 321.554 656.64H315.422C315.468 657.396 315.725 657.989 316.192 658.418C316.668 658.838 317.242 659.048 317.914 659.048C318.464 659.048 318.922 658.922 319.286 658.67C319.659 658.409 319.92 658.063 320.07 657.634H321.442C321.236 658.371 320.826 658.973 320.21 659.44C319.594 659.897 318.828 660.126 317.914 660.126C317.186 660.126 316.532 659.963 315.954 659.636C315.384 659.309 314.936 658.847 314.61 658.25C314.283 657.643 314.12 656.943 314.12 656.15C314.12 655.357 314.278 654.661 314.596 654.064C314.913 653.467 315.356 653.009 315.926 652.692C316.504 652.365 317.167 652.202 317.914 652.202C318.642 652.202 319.286 652.361 319.846 652.678C320.406 652.995 320.835 653.434 321.134 653.994C321.442 654.545 321.596 655.17 321.596 655.87ZM320.28 655.604C320.28 655.119 320.172 654.703 319.958 654.358C319.743 654.003 319.449 653.737 319.076 653.56C318.712 653.373 318.306 653.28 317.858 653.28C317.214 653.28 316.663 653.485 316.206 653.896C315.758 654.307 315.501 654.876 315.436 655.604H320.28ZM325.993 660.126C325.405 660.126 324.878 660.028 324.411 659.832C323.945 659.627 323.576 659.347 323.305 658.992C323.035 658.628 322.885 658.213 322.857 657.746H324.173C324.211 658.129 324.388 658.441 324.705 658.684C325.032 658.927 325.457 659.048 325.979 659.048C326.465 659.048 326.847 658.941 327.127 658.726C327.407 658.511 327.547 658.241 327.547 657.914C327.547 657.578 327.398 657.331 327.099 657.172C326.801 657.004 326.339 656.841 325.713 656.682C325.144 656.533 324.677 656.383 324.313 656.234C323.959 656.075 323.651 655.847 323.389 655.548C323.137 655.24 323.011 654.839 323.011 654.344C323.011 653.952 323.128 653.593 323.361 653.266C323.595 652.939 323.926 652.683 324.355 652.496C324.785 652.3 325.275 652.202 325.825 652.202C326.675 652.202 327.361 652.417 327.883 652.846C328.406 653.275 328.686 653.863 328.723 654.61H327.449C327.421 654.209 327.258 653.887 326.959 653.644C326.67 653.401 326.278 653.28 325.783 653.28C325.326 653.28 324.962 653.378 324.691 653.574C324.421 653.77 324.285 654.027 324.285 654.344C324.285 654.596 324.365 654.806 324.523 654.974C324.691 655.133 324.897 655.263 325.139 655.366C325.391 655.459 325.737 655.567 326.175 655.688C326.726 655.837 327.174 655.987 327.519 656.136C327.865 656.276 328.159 656.491 328.401 656.78C328.653 657.069 328.784 657.447 328.793 657.914C328.793 658.334 328.677 658.712 328.443 659.048C328.21 659.384 327.879 659.65 327.449 659.846C327.029 660.033 326.544 660.126 325.993 660.126ZM337.592 655.87C337.592 656.113 337.578 656.369 337.55 656.64H331.418C331.464 657.396 331.721 657.989 332.188 658.418C332.664 658.838 333.238 659.048 333.91 659.048C334.46 659.048 334.918 658.922 335.282 658.67C335.655 658.409 335.916 658.063 336.066 657.634H337.438C337.232 658.371 336.822 658.973 336.206 659.44C335.59 659.897 334.824 660.126 333.91 660.126C333.182 660.126 332.528 659.963 331.95 659.636C331.38 659.309 330.932 658.847 330.606 658.25C330.279 657.643 330.116 656.943 330.116 656.15C330.116 655.357 330.274 654.661 330.592 654.064C330.909 653.467 331.352 653.009 331.922 652.692C332.5 652.365 333.163 652.202 333.91 652.202C334.638 652.202 335.282 652.361 335.842 652.678C336.402 652.995 336.831 653.434 337.13 653.994C337.438 654.545 337.592 655.17 337.592 655.87ZM336.276 655.604C336.276 655.119 336.168 654.703 335.954 654.358C335.739 654.003 335.445 653.737 335.072 653.56C334.708 653.373 334.302 653.28 333.854 653.28C333.21 653.28 332.659 653.485 332.202 653.896C331.754 654.307 331.497 654.876 331.432 655.604H336.276ZM343.011 652.188C343.945 652.188 344.701 652.473 345.279 653.042C345.858 653.602 346.147 654.414 346.147 655.478V660H344.887V655.66C344.887 654.895 344.696 654.311 344.313 653.91C343.931 653.499 343.408 653.294 342.745 653.294C342.073 653.294 341.537 653.504 341.135 653.924C340.743 654.344 340.547 654.955 340.547 655.758V660H339.273V652.328H340.547V653.42C340.799 653.028 341.14 652.725 341.569 652.51C342.008 652.295 342.489 652.188 343.011 652.188ZM347.752 656.136C347.752 655.352 347.911 654.666 348.228 654.078C348.546 653.481 348.98 653.019 349.53 652.692C350.09 652.365 350.716 652.202 351.406 652.202C352.004 652.202 352.559 652.342 353.072 652.622C353.586 652.893 353.978 653.252 354.248 653.7V649.64H355.536V660H354.248V658.558C353.996 659.015 353.623 659.393 353.128 659.692C352.634 659.981 352.055 660.126 351.392 660.126C350.711 660.126 350.09 659.958 349.53 659.622C348.98 659.286 348.546 658.815 348.228 658.208C347.911 657.601 347.752 656.911 347.752 656.136ZM354.248 656.15C354.248 655.571 354.132 655.067 353.898 654.638C353.665 654.209 353.348 653.882 352.946 653.658C352.554 653.425 352.12 653.308 351.644 653.308C351.168 653.308 350.734 653.42 350.342 653.644C349.95 653.868 349.638 654.195 349.404 654.624C349.171 655.053 349.054 655.557 349.054 656.136C349.054 656.724 349.171 657.237 349.404 657.676C349.638 658.105 349.95 658.437 350.342 658.67C350.734 658.894 351.168 659.006 351.644 659.006C352.12 659.006 352.554 658.894 352.946 658.67C353.348 658.437 353.665 658.105 353.898 657.676C354.132 657.237 354.248 656.729 354.248 656.15ZM360.946 655.114C360.946 654.162 361.16 653.308 361.59 652.552C362.019 651.787 362.602 651.189 363.34 650.76C364.086 650.331 364.912 650.116 365.818 650.116C366.882 650.116 367.81 650.373 368.604 650.886C369.397 651.399 369.976 652.127 370.34 653.07H368.814C368.543 652.482 368.151 652.029 367.638 651.712C367.134 651.395 366.527 651.236 365.818 651.236C365.136 651.236 364.525 651.395 363.984 651.712C363.442 652.029 363.018 652.482 362.71 653.07C362.402 653.649 362.248 654.33 362.248 655.114C362.248 655.889 362.402 656.57 362.71 657.158C363.018 657.737 363.442 658.185 363.984 658.502C364.525 658.819 365.136 658.978 365.818 658.978C366.527 658.978 367.134 658.824 367.638 658.516C368.151 658.199 368.543 657.746 368.814 657.158H370.34C369.976 658.091 369.397 658.815 368.604 659.328C367.81 659.832 366.882 660.084 365.818 660.084C364.912 660.084 364.086 659.874 363.34 659.454C362.602 659.025 362.019 658.432 361.59 657.676C361.16 656.92 360.946 656.066 360.946 655.114ZM375.582 660.126C374.864 660.126 374.21 659.963 373.622 659.636C373.044 659.309 372.586 658.847 372.25 658.25C371.924 657.643 371.76 656.943 371.76 656.15C371.76 655.366 371.928 654.675 372.264 654.078C372.61 653.471 373.076 653.009 373.664 652.692C374.252 652.365 374.91 652.202 375.638 652.202C376.366 652.202 377.024 652.365 377.612 652.692C378.2 653.009 378.662 653.467 378.998 654.064C379.344 654.661 379.516 655.357 379.516 656.15C379.516 656.943 379.339 657.643 378.984 658.25C378.639 658.847 378.168 659.309 377.57 659.636C376.973 659.963 376.31 660.126 375.582 660.126ZM375.582 659.006C376.04 659.006 376.469 658.899 376.87 658.684C377.272 658.469 377.594 658.147 377.836 657.718C378.088 657.289 378.214 656.766 378.214 656.15C378.214 655.534 378.093 655.011 377.85 654.582C377.608 654.153 377.29 653.835 376.898 653.63C376.506 653.415 376.082 653.308 375.624 653.308C375.158 653.308 374.728 653.415 374.336 653.63C373.954 653.835 373.646 654.153 373.412 654.582C373.179 655.011 373.062 655.534 373.062 656.15C373.062 656.775 373.174 657.303 373.398 657.732C373.632 658.161 373.94 658.483 374.322 658.698C374.705 658.903 375.125 659.006 375.582 659.006ZM380.715 656.136C380.715 655.352 380.874 654.666 381.191 654.078C381.509 653.481 381.943 653.019 382.493 652.692C383.053 652.365 383.679 652.202 384.369 652.202C384.967 652.202 385.522 652.342 386.035 652.622C386.549 652.893 386.941 653.252 387.211 653.7V649.64H388.499V660H387.211V658.558C386.959 659.015 386.586 659.393 386.091 659.692C385.597 659.981 385.018 660.126 384.355 660.126C383.674 660.126 383.053 659.958 382.493 659.622C381.943 659.286 381.509 658.815 381.191 658.208C380.874 657.601 380.715 656.911 380.715 656.136ZM387.211 656.15C387.211 655.571 387.095 655.067 386.861 654.638C386.628 654.209 386.311 653.882 385.909 653.658C385.517 653.425 385.083 653.308 384.607 653.308C384.131 653.308 383.697 653.42 383.305 653.644C382.913 653.868 382.601 654.195 382.367 654.624C382.134 655.053 382.017 655.557 382.017 656.136C382.017 656.724 382.134 657.237 382.367 657.676C382.601 658.105 382.913 658.437 383.305 658.67C383.697 658.894 384.131 659.006 384.607 659.006C385.083 659.006 385.517 658.894 385.909 658.67C386.311 658.437 386.628 658.105 386.861 657.676C387.095 657.237 387.211 656.729 387.211 656.15ZM397.652 655.87C397.652 656.113 397.638 656.369 397.61 656.64H391.478C391.525 657.396 391.782 657.989 392.248 658.418C392.724 658.838 393.298 659.048 393.97 659.048C394.521 659.048 394.978 658.922 395.342 658.67C395.716 658.409 395.977 658.063 396.126 657.634H397.498C397.293 658.371 396.882 658.973 396.266 659.44C395.65 659.897 394.885 660.126 393.97 660.126C393.242 660.126 392.589 659.963 392.01 659.636C391.441 659.309 390.993 658.847 390.666 658.25C390.34 657.643 390.176 656.943 390.176 656.15C390.176 655.357 390.335 654.661 390.652 654.064C390.97 653.467 391.413 653.009 391.982 652.692C392.561 652.365 393.224 652.202 393.97 652.202C394.698 652.202 395.342 652.361 395.902 652.678C396.462 652.995 396.892 653.434 397.19 653.994C397.498 654.545 397.652 655.17 397.652 655.87ZM396.336 655.604C396.336 655.119 396.229 654.703 396.014 654.358C395.8 654.003 395.506 653.737 395.132 653.56C394.768 653.373 394.362 653.28 393.914 653.28C393.27 653.28 392.72 653.485 392.262 653.896C391.814 654.307 391.558 654.876 391.492 655.604H396.336Z" fill="white"/>
<rect x="30.5" y="583.5" width="369" height="51" rx="13.5" fill="white" stroke="#333333"/>
<path d="M188.121 615.126C187.245 615.126 186.453 614.976 185.745 614.676C185.049 614.376 184.497 613.944 184.089 613.38C183.681 612.816 183.471 612.15 183.459 611.382H186.159C186.195 611.898 186.375 612.306 186.699 612.606C187.035 612.906 187.491 613.056 188.067 613.056C188.655 613.056 189.117 612.918 189.453 612.642C189.789 612.354 189.957 611.982 189.957 611.526C189.957 611.154 189.843 610.848 189.615 610.608C189.387 610.368 189.099 610.182 188.751 610.05C188.415 609.906 187.947 609.75 187.347 609.582C186.531 609.342 185.865 609.108 185.349 608.88C184.845 608.64 184.407 608.286 184.035 607.818C183.675 607.338 183.495 606.702 183.495 605.91C183.495 605.166 183.681 604.518 184.053 603.966C184.425 603.414 184.947 602.994 185.619 602.706C186.291 602.406 187.059 602.256 187.923 602.256C189.219 602.256 190.269 602.574 191.073 603.21C191.889 603.834 192.339 604.71 192.423 605.838H189.651C189.627 605.406 189.441 605.052 189.093 604.776C188.757 604.488 188.307 604.344 187.743 604.344C187.251 604.344 186.855 604.47 186.555 604.722C186.267 604.974 186.123 605.34 186.123 605.82C186.123 606.156 186.231 606.438 186.447 606.666C186.675 606.882 186.951 607.062 187.275 607.206C187.611 607.338 188.079 607.494 188.679 607.674C189.495 607.914 190.161 608.154 190.677 608.394C191.193 608.634 191.637 608.994 192.009 609.474C192.381 609.954 192.567 610.584 192.567 611.364C192.567 612.036 192.393 612.66 192.045 613.236C191.697 613.812 191.187 614.274 190.515 614.622C189.843 614.958 189.045 615.126 188.121 615.126ZM204.166 605.028V615H201.628V613.74C201.304 614.172 200.878 614.514 200.35 614.766C199.834 615.006 199.27 615.126 198.658 615.126C197.878 615.126 197.188 614.964 196.588 614.64C195.988 614.304 195.514 613.818 195.166 613.182C194.83 612.534 194.662 611.766 194.662 610.878V605.028H197.182V610.518C197.182 611.31 197.38 611.922 197.776 612.354C198.172 612.774 198.712 612.984 199.396 612.984C200.092 612.984 200.638 612.774 201.034 612.354C201.43 611.922 201.628 611.31 201.628 610.518V605.028H204.166ZM209.172 606.486C209.496 606.006 209.94 605.616 210.504 605.316C211.08 605.016 211.734 604.866 212.466 604.866C213.318 604.866 214.086 605.076 214.77 605.496C215.466 605.916 216.012 606.516 216.408 607.296C216.816 608.064 217.02 608.958 217.02 609.978C217.02 610.998 216.816 611.904 216.408 612.696C216.012 613.476 215.466 614.082 214.77 614.514C214.086 614.946 213.318 615.162 212.466 615.162C211.722 615.162 211.068 615.018 210.504 614.73C209.952 614.43 209.508 614.046 209.172 613.578V615H206.652V601.68H209.172V606.486ZM214.446 609.978C214.446 609.378 214.32 608.862 214.068 608.43C213.828 607.986 213.504 607.65 213.096 607.422C212.7 607.194 212.268 607.08 211.8 607.08C211.344 607.08 210.912 607.2 210.504 607.44C210.108 607.668 209.784 608.004 209.532 608.448C209.292 608.892 209.172 609.414 209.172 610.014C209.172 610.614 209.292 611.136 209.532 611.58C209.784 612.024 210.108 612.366 210.504 612.606C210.912 612.834 211.344 612.948 211.8 612.948C212.268 612.948 212.7 612.828 213.096 612.588C213.504 612.348 213.828 612.006 214.068 611.562C214.32 611.118 214.446 610.59 214.446 609.978ZM231.235 604.884C232.459 604.884 233.443 605.262 234.187 606.018C234.943 606.762 235.321 607.806 235.321 609.15V615H232.801V609.492C232.801 608.712 232.603 608.118 232.207 607.71C231.811 607.29 231.271 607.08 230.587 607.08C229.903 607.08 229.357 607.29 228.949 607.71C228.553 608.118 228.355 608.712 228.355 609.492V615H225.835V609.492C225.835 608.712 225.637 608.118 225.241 607.71C224.845 607.29 224.305 607.08 223.621 607.08C222.925 607.08 222.373 607.29 221.965 607.71C221.569 608.118 221.371 608.712 221.371 609.492V615H218.851V605.028H221.371V606.234C221.695 605.814 222.109 605.484 222.613 605.244C223.129 605.004 223.693 604.884 224.305 604.884C225.085 604.884 225.781 605.052 226.393 605.388C227.005 605.712 227.479 606.18 227.815 606.792C228.139 606.216 228.607 605.754 229.219 605.406C229.843 605.058 230.515 604.884 231.235 604.884ZM238.991 603.84C238.547 603.84 238.175 603.702 237.875 603.426C237.587 603.138 237.443 602.784 237.443 602.364C237.443 601.944 237.587 601.596 237.875 601.32C238.175 601.032 238.547 600.888 238.991 600.888C239.435 600.888 239.801 601.032 240.089 601.32C240.389 601.596 240.539 601.944 240.539 602.364C240.539 602.784 240.389 603.138 240.089 603.426C239.801 603.702 239.435 603.84 238.991 603.84ZM240.233 605.028V615H237.713V605.028H240.233ZM245.656 607.098V611.922C245.656 612.258 245.734 612.504 245.89 612.66C246.058 612.804 246.334 612.876 246.718 612.876H247.888V615H246.304C244.18 615 243.118 613.968 243.118 611.904V607.098H241.93V605.028H243.118V602.562H245.656V605.028H247.888V607.098H245.656Z" fill="#333333"/>
<rect x="42" y="488" width="55" height="67" rx="4" fill="#4D4D4D"/>
<rect x="42.5" y="488.5" width="54" height="66" rx="3.5" stroke="white" stroke-opacity="0.4"/>
<rect x="115" y="488" width="55" height="67" rx="4" fill="#4D4D4D"/>
<rect x="115.5" y="488.5" width="54" height="66" rx="3.5" stroke="white" stroke-opacity="0.4"/>
<rect x="188" y="488" width="55" height="67" rx="4" fill="#4D4D4D"/>
<rect x="188.5" y="488.5" width="54" height="66" rx="3.5" stroke="white" stroke-opacity="0.4"/>
<rect x="261" y="488" width="55" height="67" rx="4" fill="#4D4D4D"/>
<rect x="261.5" y="488.5" width="54" height="66" rx="3.5" stroke="white" stroke-opacity="0.4"/>
<rect x="334" y="488" width="55" height="67" rx="4" fill="#4D4D4D"/>
<rect x="334.5" y="488.5" width="54" height="66" rx="3.5" stroke="white" stroke-opacity="0.4"/>
<path d="M66.8873 517.2V514.878H71.2253V528H68.6333V517.2H66.8873Z" fill="white"/>
<path d="M144.001 518.154C143.881 517.65 143.671 517.272 143.371 517.02C143.083 516.768 142.663 516.642 142.111 516.642C141.283 516.642 140.671 516.978 140.275 517.65C139.891 518.31 139.693 519.39 139.681 520.89C139.969 520.41 140.389 520.038 140.941 519.774C141.493 519.498 142.093 519.36 142.741 519.36C143.521 519.36 144.211 519.528 144.811 519.864C145.411 520.2 145.879 520.692 146.215 521.34C146.551 521.976 146.719 522.744 146.719 523.644C146.719 524.496 146.545 525.258 146.197 525.93C145.861 526.59 145.363 527.106 144.703 527.478C144.043 527.85 143.257 528.036 142.345 528.036C141.097 528.036 140.113 527.76 139.393 527.208C138.685 526.656 138.187 525.888 137.899 524.904C137.623 523.908 137.485 522.684 137.485 521.232C137.485 519.036 137.863 517.38 138.619 516.264C139.375 515.136 140.569 514.572 142.201 514.572C143.461 514.572 144.439 514.914 145.135 515.598C145.831 516.282 146.233 517.134 146.341 518.154H144.001ZM142.165 521.43C141.529 521.43 140.995 521.616 140.563 521.988C140.131 522.36 139.915 522.9 139.915 523.608C139.915 524.316 140.113 524.874 140.509 525.282C140.917 525.69 141.487 525.894 142.219 525.894C142.867 525.894 143.377 525.696 143.749 525.3C144.133 524.904 144.325 524.37 144.325 523.698C144.325 523.002 144.139 522.45 143.767 522.042C143.407 521.634 142.873 521.43 142.165 521.43Z" fill="white"/>
<path d="M219.375 516.786L214.587 528H212.031L216.855 517.074H210.699V514.914H219.375V516.786Z" fill="white"/>
<path d="M284.102 518.334C284.162 517.134 284.582 516.21 285.362 515.562C286.154 514.902 287.192 514.572 288.476 514.572C289.352 514.572 290.102 514.728 290.726 515.04C291.35 515.34 291.818 515.754 292.13 516.282C292.454 516.798 292.616 517.386 292.616 518.046C292.616 518.802 292.418 519.444 292.022 519.972C291.638 520.488 291.176 520.836 290.636 521.016V521.088C291.332 521.304 291.872 521.688 292.256 522.24C292.652 522.792 292.85 523.5 292.85 524.364C292.85 525.084 292.682 525.726 292.346 526.29C292.022 526.854 291.536 527.298 290.888 527.622C290.252 527.934 289.484 528.09 288.584 528.09C287.228 528.09 286.124 527.748 285.272 527.064C284.42 526.38 283.97 525.372 283.922 524.04H286.37C286.394 524.628 286.592 525.102 286.964 525.462C287.348 525.81 287.87 525.984 288.53 525.984C289.142 525.984 289.61 525.816 289.934 525.48C290.27 525.132 290.438 524.688 290.438 524.148C290.438 523.428 290.21 522.912 289.754 522.6C289.298 522.288 288.59 522.132 287.63 522.132H287.108V520.062H287.63C289.334 520.062 290.186 519.492 290.186 518.352C290.186 517.836 290.03 517.434 289.718 517.146C289.418 516.858 288.98 516.714 288.404 516.714C287.84 516.714 287.402 516.87 287.09 517.182C286.79 517.482 286.616 517.866 286.568 518.334H284.102Z" fill="white"/>
<path d="M356.136 521.268C356.136 519.192 356.508 517.566 357.252 516.39C358.008 515.214 359.256 514.626 360.996 514.626C362.736 514.626 363.978 515.214 364.722 516.39C365.478 517.566 365.856 519.192 365.856 521.268C365.856 523.356 365.478 524.994 364.722 526.182C363.978 527.37 362.736 527.964 360.996 527.964C359.256 527.964 358.008 527.37 357.252 526.182C356.508 524.994 356.136 523.356 356.136 521.268ZM363.372 521.268C363.372 520.38 363.312 519.636 363.192 519.036C363.084 518.424 362.856 517.926 362.508 517.542C362.172 517.158 361.668 516.966 360.996 516.966C360.324 516.966 359.814 517.158 359.466 517.542C359.13 517.926 358.902 518.424 358.782 519.036C358.674 519.636 358.62 520.38 358.62 521.268C358.62 522.18 358.674 522.948 358.782 523.572C358.89 524.184 359.118 524.682 359.466 525.066C359.814 525.438 360.324 525.624 360.996 525.624C361.668 525.624 362.178 525.438 362.526 525.066C362.874 524.682 363.102 524.184 363.21 523.572C363.318 522.948 363.372 522.18 363.372 521.268Z" fill="white"/>
<path d="M398 29.625H398.008M406.105 21.5256C403.97 19.569 401.124 18.375 398 18.375C394.876 18.375 392.03 19.569 389.895 21.5256M392.549 24.1823C394.003 22.9018 395.911 22.125 398 22.125C400.089 22.125 401.997 22.9018 403.451 24.1823M400.774 26.8313C400.009 26.2322 399.046 25.875 398 25.875C396.938 25.875 395.961 26.2431 395.192 26.8587" stroke="white" stroke-linecap="round" stroke-linejoin="round"/>
<path d="M377.182 19.318C378.939 21.0753 378.939 23.9246 377.182 25.6819M370.818 25.6819C369.061 23.9246 369.061 21.0753 370.818 19.318M368.697 27.8033C365.768 24.8743 365.768 20.1256 368.697 17.1967M379.304 17.1967C382.232 20.1256 382.232 24.8743 379.304 27.8033M374 24C374.828 24 375.5 23.3284 375.5 22.5C375.5 21.6716 374.828 21 374 21C373.172 21 372.5 21.6716 372.5 22.5C372.5 23.3284 373.172 24 374 24ZM374 24V30.75" stroke="white" stroke-linecap="round" stroke-linejoin="round"/>
<path d="M23.93 25.5C24.31 25.3533 24.68 25.1667 25.04 24.94C25.4 24.7067 25.73 24.4167 26.03 24.07H26.69V31H25.76V25.36C25.68 25.4333 25.58 25.51 25.46 25.59C25.3467 25.67 25.22 25.7467 25.08 25.82C24.9467 25.8933 24.8033 25.9633 24.65 26.03C24.5033 26.0967 24.36 26.1533 24.22 26.2L23.93 25.5ZM29.1445 27.53C29.1445 26.37 29.3479 25.4767 29.7545 24.85C30.1679 24.2233 30.7379 23.91 31.4645 23.91C32.1912 23.91 32.7579 24.2233 33.1645 24.85C33.5779 25.4767 33.7845 26.37 33.7845 27.53C33.7845 28.69 33.5779 29.5833 33.1645 30.21C32.7579 30.8367 32.1912 31.15 31.4645 31.15C30.7379 31.15 30.1679 30.8367 29.7545 30.21C29.3479 29.5833 29.1445 28.69 29.1445 27.53ZM32.8045 27.53C32.8045 27.15 32.7812 26.79 32.7345 26.45C32.6945 26.11 32.6212 25.8133 32.5145 25.56C32.4145 25.3067 32.2779 25.1067 32.1045 24.96C31.9312 24.8067 31.7179 24.73 31.4645 24.73C31.2112 24.73 30.9979 24.8067 30.8245 24.96C30.6512 25.1067 30.5112 25.3067 30.4045 25.56C30.3045 25.8133 30.2312 26.11 30.1845 26.45C30.1445 26.79 30.1245 27.15 30.1245 27.53C30.1245 27.91 30.1445 28.27 30.1845 28.61C30.2312 28.95 30.3045 29.2467 30.4045 29.5C30.5112 29.7533 30.6512 29.9567 30.8245 30.11C30.9979 30.2567 31.2112 30.33 31.4645 30.33C31.7179 30.33 31.9312 30.2567 32.1045 30.11C32.2779 29.9567 32.4145 29.7533 32.5145 29.5C32.6212 29.2467 32.6945 28.95 32.7345 28.61C32.7812 28.27 32.8045 27.91 32.8045 27.53ZM36.1891 30.46C36.1891 30.64 36.1291 30.7967 36.0091 30.93C35.8891 31.0633 35.7257 31.13 35.5191 31.13C35.3124 31.13 35.1491 31.0633 35.0291 30.93C34.9091 30.7967 34.8491 30.64 34.8491 30.46C34.8491 30.28 34.9091 30.1233 35.0291 29.99C35.1491 29.8567 35.3124 29.79 35.5191 29.79C35.7257 29.79 35.8891 29.8567 36.0091 29.99C36.1291 30.1233 36.1891 30.28 36.1891 30.46ZM36.1891 26.47C36.1891 26.65 36.1291 26.8067 36.0091 26.94C35.8891 27.0733 35.7257 27.14 35.5191 27.14C35.3124 27.14 35.1491 27.0733 35.0291 26.94C34.9091 26.8067 34.8491 26.65 34.8491 26.47C34.8491 26.29 34.9091 26.1333 35.0291 26C35.1491 25.8667 35.3124 25.8 35.5191 25.8C35.7257 25.8 35.8891 25.8667 36.0091 26C36.1291 26.1333 36.1891 26.29 36.1891 26.47ZM39.01 30.32C39.6033 30.32 40.0267 30.2033 40.28 29.97C40.54 29.7367 40.67 29.4233 40.67 29.03C40.67 28.7767 40.6167 28.5633 40.51 28.39C40.4033 28.2167 40.2633 28.08 40.09 27.98C39.9167 27.8733 39.7133 27.8 39.48 27.76C39.2533 27.7133 39.02 27.69 38.78 27.69H38.54V26.93H38.87C39.0367 26.93 39.2067 26.9133 39.38 26.88C39.56 26.8467 39.7233 26.7867 39.87 26.7C40.0167 26.6133 40.1367 26.4967 40.23 26.35C40.3233 26.1967 40.37 26.0067 40.37 25.78C40.37 25.5933 40.3367 25.4333 40.27 25.3C40.2033 25.1667 40.1133 25.0567 40 24.97C39.8933 24.8833 39.7667 24.8233 39.62 24.79C39.48 24.75 39.33 24.73 39.17 24.73C38.85 24.73 38.5767 24.7767 38.35 24.87C38.13 24.9633 37.9433 25.06 37.79 25.16L37.43 24.45C37.51 24.3967 37.61 24.34 37.73 24.28C37.8567 24.2133 37.9967 24.1533 38.15 24.1C38.3033 24.0467 38.4667 24.0033 38.64 23.97C38.82 23.93 39.0067 23.91 39.2 23.91C39.5667 23.91 39.8833 23.9567 40.15 24.05C40.4167 24.1367 40.6367 24.2633 40.81 24.43C40.9833 24.59 41.1133 24.7833 41.2 25.01C41.2867 25.23 41.33 25.47 41.33 25.73C41.33 26.09 41.2267 26.4 41.02 26.66C40.8133 26.9133 40.5633 27.1067 40.27 27.24C40.45 27.2933 40.6233 27.37 40.79 27.47C40.9567 27.57 41.1 27.6967 41.22 27.85C41.3467 28.0033 41.4467 28.18 41.52 28.38C41.6 28.58 41.64 28.8033 41.64 29.05C41.64 29.35 41.5867 29.63 41.48 29.89C41.38 30.1433 41.22 30.3633 41 30.55C40.7867 30.7367 40.5167 30.8833 40.19 30.99C39.8633 31.0967 39.4767 31.15 39.03 31.15C38.8567 31.15 38.6767 31.1367 38.49 31.11C38.31 31.0833 38.14 31.05 37.98 31.01C37.82 30.97 37.68 30.93 37.56 30.89C37.44 30.85 37.3533 30.8167 37.3 30.79L37.48 29.98C37.5933 30.0333 37.78 30.1033 38.04 30.19C38.3067 30.2767 38.63 30.32 39.01 30.32ZM42.8945 27.53C42.8945 26.37 43.0979 25.4767 43.5045 24.85C43.9179 24.2233 44.4879 23.91 45.2145 23.91C45.9412 23.91 46.5079 24.2233 46.9145 24.85C47.3279 25.4767 47.5345 26.37 47.5345 27.53C47.5345 28.69 47.3279 29.5833 46.9145 30.21C46.5079 30.8367 45.9412 31.15 45.2145 31.15C44.4879 31.15 43.9179 30.8367 43.5045 30.21C43.0979 29.5833 42.8945 28.69 42.8945 27.53ZM46.5545 27.53C46.5545 27.15 46.5312 26.79 46.4845 26.45C46.4445 26.11 46.3712 25.8133 46.2645 25.56C46.1645 25.3067 46.0279 25.1067 45.8545 24.96C45.6812 24.8067 45.4679 24.73 45.2145 24.73C44.9612 24.73 44.7479 24.8067 44.5745 24.96C44.4012 25.1067 44.2612 25.3067 44.1545 25.56C44.0545 25.8133 43.9812 26.11 43.9345 26.45C43.8945 26.79 43.8745 27.15 43.8745 27.53C43.8745 27.91 43.8945 28.27 43.9345 28.61C43.9812 28.95 44.0545 29.2467 44.1545 29.5C44.2612 29.7533 44.4012 29.9567 44.5745 30.11C44.7479 30.2567 44.9612 30.33 45.2145 30.33C45.4679 30.33 45.6812 30.2567 45.8545 30.11C46.0279 29.9567 46.1645 29.7533 46.2645 29.5C46.3712 29.2467 46.4445 28.95 46.4845 28.61C46.5312 28.27 46.5545 27.91 46.5545 27.53ZM55.8435 31C55.7302 30.7 55.6235 30.4067 55.5235 30.12C55.4235 29.8267 55.3202 29.53 55.2135 29.23H52.0735L51.4435 31H50.4335C50.7002 30.2667 50.9502 29.59 51.1835 28.97C51.4168 28.3433 51.6435 27.75 51.8635 27.19C52.0902 26.63 52.3135 26.0967 52.5335 25.59C52.7535 25.0767 52.9835 24.57 53.2235 24.07H54.1135C54.3535 24.57 54.5835 25.0767 54.8035 25.59C55.0235 26.0967 55.2435 26.63 55.4635 27.19C55.6902 27.75 55.9202 28.3433 56.1535 28.97C56.3868 29.59 56.6368 30.2667 56.9035 31H55.8435ZM54.9335 28.43C54.7202 27.85 54.5068 27.29 54.2935 26.75C54.0868 26.2033 53.8702 25.68 53.6435 25.18C53.4102 25.68 53.1868 26.2033 52.9735 26.75C52.7668 27.29 52.5602 27.85 52.3535 28.43H54.9335ZM60.9544 30.04C60.8877 29.88 60.7977 29.6767 60.6844 29.43C60.5777 29.1833 60.461 28.9167 60.3344 28.63C60.2077 28.3433 60.071 28.05 59.9244 27.75C59.7844 27.4433 59.651 27.1567 59.5244 26.89C59.3977 26.6167 59.2777 26.3733 59.1644 26.16C59.0577 25.9467 58.971 25.7833 58.9044 25.67C58.831 26.4567 58.771 27.31 58.7244 28.23C58.6777 29.1433 58.6377 30.0667 58.6044 31H57.6544C57.681 30.4 57.711 29.7967 57.7444 29.19C57.7777 28.5767 57.8144 27.9767 57.8544 27.39C57.901 26.7967 57.9477 26.22 57.9944 25.66C58.0477 25.1 58.1044 24.57 58.1644 24.07H59.0144C59.1944 24.3633 59.3877 24.71 59.5944 25.11C59.801 25.51 60.0077 25.93 60.2144 26.37C60.421 26.8033 60.621 27.24 60.8144 27.68C61.0077 28.1133 61.1844 28.51 61.3444 28.87C61.5044 28.51 61.681 28.1133 61.8744 27.68C62.0677 27.24 62.2677 26.8033 62.4744 26.37C62.681 25.93 62.8877 25.51 63.0944 25.11C63.301 24.71 63.4944 24.3633 63.6744 24.07H64.5244C64.751 26.3033 64.921 28.6133 65.0344 31H64.0844C64.051 30.0667 64.011 29.1433 63.9644 28.23C63.9177 27.31 63.8577 26.4567 63.7844 25.67C63.7177 25.7833 63.6277 25.9467 63.5144 26.16C63.4077 26.3733 63.291 26.6167 63.1644 26.89C63.0377 27.1567 62.901 27.4433 62.7544 27.75C62.6144 28.05 62.481 28.3433 62.3544 28.63C62.2277 28.9167 62.1077 29.1833 61.9944 29.43C61.8877 29.6767 61.801 29.88 61.7344 30.04H60.9544Z" fill="white"/>
</svg>
